<svg width="500" height="500" viewBox="0 0 500 500" fill="none" xmlns="http://www.w3.org/2000/svg">
<path d="M121.5 398.5C121.5 398.5 140.5 373 144.5 361C146.722 354.334 164.065 353.531 180.5 350.792C193.651 348.6 206.222 345.168 210 336.5C213.373 328.762 214.5 292 195.021 284C175.542 276 174 253.5 182.5 239.5C191 225.5 217.5 229 225.5 229M225.5 229C232.929 200.418 202.039 179.833 178.5 162C162.645 149.989 143.681 163.421 129 150C115.538 137.694 112 106.5 112 106.5M225.5 229C225.5 229 262.372 233.406 280 218.5C296.509 204.54 280.756 186.591 301 179C321 171.5 325 175 337 179C344.278 181.426 355.74 191.479 372.5 188C399 182.5 412.603 170.301 415 147.5" stroke="#2F5D50" stroke-width="10"/>
<path d="M151 96C139.887 100.193 129.5 104.5 122.5 111.5C120.291 113.709 122.5 119 123.5 122C125.323 127.47 125.992 131.081 129 136C131.713 140.436 133.982 143.427 138.5 146C143.59 148.899 147.642 148.5 153.5 148.5C158.967 148.5 161.121 148.022 166.5 149C170.753 149.773 172.536 149.778 176.5 151.5C182.121 153.942 184.882 156.629 190 160C195.251 163.459 198.321 164.8 203 169C208.249 173.712 216 181 216 181C216 181 221.787 187.093 225.66 192.332C226.23 193.103 226.714 193.926 227.139 194.785C228.456 197.451 231.516 203.731 233.5 208.5C235.54 213.404 232 222 238.5 222C245 222 244.776 221.228 247.5 221C254.639 220.401 258.954 220.409 265.5 217.5L265.51 217.495C270.006 215.497 273.744 213.836 276.5 210C279.06 206.436 279.233 204.82 280 200.5C280.717 196.463 280.739 193.029 281.5 189C282.409 184.188 283.002 182.872 286 179C289.879 173.99 292.054 173.69 298 171.5L298.201 171.426C307.557 167.979 311.571 166.5 321.5 166.5C327.515 166.5 331.5 168 335 169.5C338.5 171 343.444 172.862 348.5 175.5C355.767 179.292 360.809 180.292 369 180C376.052 179.749 380.117 178.509 386.5 175.5C392.085 172.867 395.652 171.329 399.5 166.5C402.713 162.468 405.084 159.654 405 154.5C404.919 149.522 401.915 147.595 400 143C397.5 137 395.114 132.581 391 127C386.564 120.982 384.448 118.12 379 113C372.169 106.58 366.568 103.304 358 99.5C348.199 95.1482 342.704 93.6391 332 93C298.5 91 278.671 92.5 244.5 92.5C215.015 92.5 197.398 90.2387 168 92.5C161.5 93 157.3 93.6232 151 96Z" fill="#DDE8EA" stroke="#DDE8EA"/>
<path d="M101.633 136.687L108 126.5C108.185 126.131 108.723 126.169 108.854 126.561L110 130L111.5 135L113 139.5L116 147L118.158 150.956C118.718 151.983 119.368 152.959 120.098 153.873L121.826 156.032C122.607 157.009 123.478 157.91 124.427 158.723L124.631 158.898C125.872 159.962 127.24 160.87 128.702 161.601L130.02 162.26C131.005 162.752 132.029 163.163 133.082 163.487L136.5 164.539C137.499 164.846 138.519 165.074 139.553 165.222L143.593 165.799C144.53 165.933 145.475 166 146.421 166H160.5H161.528C164.469 166 167.369 166.685 170 168L173.23 169.468C174.737 170.153 176.154 171.023 177.447 172.058L185.5 178.5L193.103 183.702C194.364 184.565 195.521 185.568 196.553 186.694L200.5 191L206.332 195.999C207.109 196.665 207.835 197.391 208.501 198.168L211.898 202.131C212.962 203.372 213.87 204.74 214.601 206.202L216 209L218.194 214.264C218.396 214.75 218.5 215.271 218.5 215.797V217.723C218.5 219.177 217.195 220.282 215.761 220.043C215.588 220.015 215.411 220.005 215.236 220.016L207 220.5L200.834 220.863C199.283 220.954 197.749 221.225 196.261 221.672L191.074 223.228C189.366 223.74 187.734 224.479 186.221 225.424L182.885 227.51C181.303 228.498 179.867 229.704 178.619 231.09L177.812 231.987C176.609 233.323 175.593 234.815 174.789 236.422L172.636 240.729C172.212 241.575 171.85 242.451 171.551 243.348L170.847 245.459C170.285 247.146 169.95 248.899 169.851 250.674L169.5 257L169.879 261.932C169.96 262.976 170.122 264.012 170.364 265.03L171.85 271.272C172.281 273.082 172.963 274.823 173.875 276.444L176.17 280.525C176.722 281.506 177.359 282.438 178.072 283.31C180.315 286.051 183.263 288.129 186.598 289.321L186.752 289.376C187.915 289.791 189.037 290.313 190.103 290.935L191.928 292C193.631 292.993 195.162 294.257 196.461 295.741C197.483 296.909 198.351 298.203 199.046 299.591L199.279 300.059C199.759 301.018 200.161 302.014 200.481 303.038L202.5 309.5L203.612 315.058C203.87 316.35 204 317.663 204 318.98V323.5L203.202 330.681C203.069 331.876 202.652 333.022 201.985 334.023C201.337 334.994 200.472 335.802 199.458 336.381L196.286 338.194C194.769 339.061 193.144 339.725 191.453 340.17L184.5 342L170.5 344.5L162 345.5L151.289 347.214C150.099 347.404 148.928 347.702 147.792 348.103L144.639 349.216C142.251 350.058 140.112 351.486 138.418 353.368C137.151 354.777 136.158 356.411 135.493 358.185L133.5 363.5L130.878 369.867C130.295 371.284 129.55 372.63 128.659 373.877L125 379L122.25 382.25L121.043 383.677C120.202 384.67 118.703 384.76 117.75 383.875L116 382.25L114.12 380.504C113.043 379.504 112.08 378.389 111.248 377.179L107 371L101.5 360.5L97.0475 348.478C96.6831 347.494 96.3966 346.483 96.1909 345.454L94 334.5L93 324.5V307V262.5V227V200V168.418C93 167.142 93.122 165.87 93.3644 164.617L95.7061 152.519C95.9017 151.508 96.1752 150.513 96.5239 149.545L99.7756 140.512C100.257 139.175 100.88 137.892 101.633 136.687Z" fill="#E8E0D2" stroke="#E8E0D2"/>
<path d="M407.146 179.647C407.83 178.963 408.999 179.447 409 180.414V188.525L408.997 188.55L408.5 193.517L408 208.517V232.995L408.358 266.718C393.43 257.493 375.837 252.167 357 252.167C302.968 252.167 259.167 295.969 259.167 350C259.167 371.935 266.386 392.183 278.577 408.5H172.418C171.11 408.5 169.805 408.375 168.522 408.127L156.809 405.859C155.511 405.608 154.239 405.232 153.013 404.735L144.312 401.214L136.437 398.026C134.771 397.352 134.092 395.355 135.001 393.804L135.693 392.622L142.068 381.747L148.556 370.268C150.807 365.155 155.544 361.569 161.078 360.794L177.415 358.507L192.237 355.966C193.97 355.669 195.655 355.139 197.246 354.391L207.908 349.373C210.401 348.2 212.617 346.512 214.41 344.42L214.47 344.35C216.489 341.995 217.916 339.193 218.634 336.176L219.469 332.669C219.822 331.19 220 329.673 220 328.152V319.474C220 318.517 219.929 317.562 219.789 316.616L218.261 306.306C218.095 305.182 217.831 304.075 217.471 302.997L215.152 296.037C214.746 294.819 214.22 293.643 213.583 292.528L210.98 287.973C209.433 285.266 207.26 282.97 204.642 281.276L200.248 278.432L195.774 275.972C192.103 273.952 189.211 270.763 187.56 266.911C187.204 266.081 186.909 265.225 186.676 264.352L185.984 261.758C185.328 259.3 185.137 256.741 185.418 254.212L185.575 252.8C185.865 250.188 186.725 247.672 188.095 245.43C190.399 241.661 194.013 238.874 198.244 237.605L199.508 237.226C201.106 236.746 202.758 236.463 204.424 236.384L212.476 236.001L212.499 235.999L212.522 236.001L223.522 236.501H223.53L240.003 237.499L253.053 237.079C254.627 237.028 256.189 236.787 257.705 236.36L269.535 233.033C270.721 232.7 271.874 232.254 272.976 231.703L279.04 228.671C280.487 227.947 281.84 227.045 283.065 225.987L287.923 221.792C290.633 219.452 292.646 216.41 293.742 213.001L296.516 204.37L297.507 200.406L298.004 196.438L298.005 196.428L298.006 196.418L298.436 193.841C298.824 191.514 300.006 189.393 301.782 187.839C302.747 186.995 303.862 186.339 305.069 185.908L308.431 184.708C309.726 184.246 311.065 183.914 312.426 183.72L314.365 183.442C316.446 183.145 318.561 183.17 320.634 183.516L323.582 184.007L323.595 184.009L323.608 184.012L328.108 185.012L328.131 185.018L331.245 185.866C332.869 186.309 334.433 186.952 335.901 187.777L339.509 189.807C340.956 190.621 342.502 191.247 344.107 191.669L357.302 195.142C359.448 195.706 361.674 195.9 363.884 195.716L376.229 194.688C377.673 194.567 379.1 194.286 380.482 193.85L387.83 191.529L394.482 188.942C395.994 188.354 397.428 187.579 398.749 186.636L402.362 184.056C403.236 183.432 404.058 182.735 404.817 181.976L407.146 179.647Z" fill="#B1CEB5"/>
<path d="M325 75C380.228 75 425 119.772 425 175V279.665C420.695 275.502 416.01 271.73 411 268.408V175C411 127.504 372.496 89 325 89H175C127.504 89 89 127.504 89 175V325C89 372.496 127.504 411 175 411H280.51C284.59 416.109 289.171 420.801 294.179 425H175L173.707 424.992C119.505 424.305 75.6946 380.495 75.0078 326.293L75 325V175C75 119.772 119.772 75 175 75H325Z" fill="#2F5D50"/>
<ellipse cx="356.111" cy="350.462" rx="81.8154" ry="84.1664" stroke="#C49A4A" stroke-width="16"/>
<path d="M454.225 460.355C458.288 464.097 464.614 463.837 468.355 459.775C472.097 455.712 471.837 449.386 467.775 445.645L461 453L454.225 460.355ZM417.818 413.227L411.043 420.583L454.225 460.355L461 453L467.775 445.645L424.593 405.872L417.818 413.227Z" fill="#C49A4A"/>
</svg>
