<svg width="1300" height="500" viewBox="0 0 1300 500" fill="none" xmlns="http://www.w3.org/2000/svg">
<path d="M121.5 398.5C121.5 398.5 140.5 373 144.5 361C146.722 354.334 164.065 353.531 180.5 350.792C193.651 348.6 206.222 345.168 210 336.5C213.373 328.762 214.5 292 195.021 284C175.542 276 174 253.5 182.5 239.5C191 225.5 217.5 229 225.5 229M225.5 229C232.929 200.418 202.039 179.833 178.5 162C162.645 149.989 143.681 163.421 129 150C115.538 137.694 112 106.5 112 106.5M225.5 229C225.5 229 262.372 233.406 280 218.5C296.509 204.54 280.756 186.591 301 179C321 171.5 325 175 337 179C344.278 181.426 355.74 191.479 372.5 188C399 182.5 412.603 170.301 415 147.5" stroke="#2F5D50" stroke-width="10"/>
<path d="M151 95.9999C139.887 100.193 129.5 104.5 122.5 111.5C120.291 113.709 122.5 119 123.5 122C125.323 127.47 125.992 131.081 129 136C131.713 140.435 133.982 143.427 138.5 146C143.59 148.899 147.642 148.5 153.5 148.5C158.967 148.5 161.121 148.022 166.5 149C170.753 149.773 172.536 149.778 176.5 151.5C182.121 153.942 184.882 156.629 190 160C195.251 163.458 198.321 164.8 203 169C208.249 173.712 216 181 216 181C216 181 221.787 187.093 225.66 192.332C226.23 193.103 226.714 193.925 227.139 194.785C228.456 197.451 231.516 203.731 233.5 208.5C235.54 213.404 232 222 238.5 222C245 222 244.776 221.228 247.5 221C254.639 220.401 258.954 220.409 265.5 217.5L265.51 217.495C270.006 215.497 273.744 213.836 276.5 210C279.06 206.436 279.233 204.82 280 200.5C280.717 196.463 280.739 193.029 281.5 189C282.409 184.188 283.002 182.872 286 179C289.879 173.99 292.054 173.69 298 171.5L298.201 171.426C307.557 167.979 311.571 166.5 321.5 166.5C327.515 166.5 331.5 168 335 169.5C338.5 171 343.444 172.862 348.5 175.5C355.767 179.291 360.809 180.292 369 180C376.052 179.749 380.117 178.509 386.5 175.5C392.085 172.867 395.652 171.329 399.5 166.5C402.713 162.468 405.084 159.654 405 154.5C404.919 149.522 401.915 147.595 400 143C397.5 137 395.114 132.581 391 127C386.564 120.982 384.448 118.12 379 113C372.169 106.58 366.568 103.304 358 99.4999C348.199 95.1481 342.704 93.639 332 92.9999C298.5 90.9999 278.671 92.4999 244.5 92.4999C215.015 92.4999 197.398 90.2386 168 92.4999C161.5 92.9999 157.3 93.6231 151 95.9999Z" fill="#DDE8EA" stroke="#DDE8EA"/>
<path d="M101.633 136.687L108 126.5C108.185 126.131 108.723 126.169 108.854 126.561L110 130L111.5 135L113 139.5L116 147L118.158 150.956C118.718 151.983 119.368 152.959 120.098 153.873L121.826 156.032C122.607 157.009 123.478 157.91 124.427 158.723L124.631 158.898C125.872 159.962 127.24 160.87 128.702 161.601L130.02 162.26C131.005 162.752 132.029 163.163 133.082 163.487L136.5 164.539C137.499 164.846 138.519 165.074 139.553 165.222L143.593 165.799C144.53 165.933 145.475 166 146.421 166H160.5H161.528C164.469 166 167.369 166.685 170 168L173.23 169.468C174.737 170.153 176.154 171.023 177.447 172.058L185.5 178.5L193.103 183.702C194.364 184.565 195.521 185.568 196.553 186.694L200.5 191L206.332 195.999C207.109 196.665 207.835 197.391 208.501 198.168L211.898 202.131C212.962 203.372 213.87 204.74 214.601 206.202L216 209L218.194 214.264C218.396 214.75 218.5 215.271 218.5 215.797V217.723C218.5 219.177 217.195 220.282 215.761 220.043C215.588 220.015 215.411 220.005 215.236 220.016L207 220.5L200.834 220.863C199.283 220.954 197.749 221.225 196.261 221.672L191.074 223.228C189.366 223.74 187.734 224.479 186.221 225.424L182.885 227.51C181.303 228.498 179.867 229.704 178.619 231.09L177.812 231.987C176.609 233.323 175.593 234.815 174.789 236.422L172.636 240.729C172.212 241.575 171.85 242.451 171.551 243.348L170.847 245.459C170.285 247.146 169.95 248.899 169.851 250.674L169.5 257L169.879 261.932C169.96 262.976 170.122 264.012 170.364 265.03L171.85 271.272C172.281 273.082 172.963 274.823 173.875 276.444L176.17 280.525C176.722 281.506 177.359 282.438 178.072 283.31C180.315 286.051 183.263 288.129 186.598 289.321L186.752 289.376C187.915 289.791 189.037 290.313 190.103 290.935L191.928 292C193.631 292.993 195.162 294.257 196.461 295.741C197.483 296.909 198.351 298.203 199.046 299.591L199.279 300.059C199.759 301.018 200.161 302.014 200.481 303.038L202.5 309.5L203.612 315.058C203.87 316.35 204 317.663 204 318.98V323.5L203.202 330.681C203.069 331.876 202.652 333.022 201.985 334.023C201.337 334.994 200.472 335.802 199.458 336.381L196.286 338.194C194.769 339.061 193.144 339.725 191.453 340.17L184.5 342L170.5 344.5L162 345.5L151.289 347.214C150.099 347.404 148.928 347.702 147.792 348.103L144.639 349.216C142.251 350.058 140.112 351.486 138.418 353.368C137.151 354.777 136.158 356.411 135.493 358.185L133.5 363.5L130.878 369.867C130.295 371.284 129.55 372.63 128.659 373.877L125 379L122.25 382.25L121.043 383.677C120.202 384.67 118.703 384.76 117.75 383.875L116 382.25L114.12 380.504C113.043 379.504 112.08 378.389 111.248 377.179L107 371L101.5 360.5L97.0475 348.478C96.6831 347.494 96.3966 346.483 96.1909 345.454L94 334.5L93 324.5V307V262.5V227V200V168.418C93 167.142 93.122 165.87 93.3644 164.617L95.7061 152.519C95.9017 151.508 96.1752 150.513 96.5239 149.545L99.7756 140.512C100.257 139.175 100.88 137.892 101.633 136.687Z" fill="#E8E0D2" stroke="#E8E0D2"/>
<path d="M407.146 179.646C407.83 178.962 409 179.447 409 180.414V188.525L408.997 188.55L408.5 193.516L408 208.516V232.995L408.358 266.718C393.43 257.492 375.837 252.167 357 252.167C302.968 252.167 259.167 295.968 259.167 350C259.167 371.934 266.386 392.183 278.577 408.5H172.418C171.111 408.5 169.806 408.375 168.522 408.127L156.809 405.859C155.511 405.608 154.239 405.231 153.014 404.735L144.312 401.214L136.437 398.026C134.771 397.352 134.092 395.354 135.001 393.804L135.693 392.622L142.068 381.747L148.556 370.267C150.807 365.154 155.544 361.569 161.078 360.794L177.415 358.507L192.237 355.966C193.97 355.669 195.655 355.139 197.246 354.391L207.908 349.373C210.401 348.2 212.617 346.512 214.41 344.42L214.471 344.35C216.489 341.995 217.916 339.193 218.635 336.176L219.47 332.669C219.822 331.189 220 329.673 220 328.152V319.474C220 318.517 219.929 317.562 219.789 316.616L218.262 306.306C218.095 305.182 217.831 304.075 217.472 302.997L215.152 296.037C214.746 294.819 214.22 293.643 213.583 292.528L210.98 287.973C209.434 285.266 207.26 282.97 204.642 281.276L200.248 278.432L195.774 275.972C192.103 273.952 189.211 270.762 187.56 266.911C187.204 266.08 186.909 265.225 186.677 264.351L185.984 261.758C185.329 259.299 185.137 256.74 185.418 254.212L185.575 252.8C185.865 250.188 186.725 247.672 188.096 245.43C190.399 241.661 194.013 238.874 198.244 237.604L199.509 237.225C201.107 236.746 202.758 236.463 204.425 236.384L212.476 236.001L212.499 235.999L212.522 236.001L223.522 236.501H223.53L240.003 237.499L253.054 237.079C254.627 237.028 256.189 236.786 257.705 236.36L269.535 233.033C270.721 232.699 271.874 232.254 272.976 231.703L279.04 228.671C280.488 227.947 281.84 227.045 283.065 225.987L287.924 221.792C290.633 219.452 292.646 216.41 293.742 213.001L296.516 204.37L297.508 200.406L298.004 196.437L298.005 196.428L298.007 196.418L298.436 193.841C298.824 191.514 300.007 189.392 301.782 187.839C302.747 186.995 303.862 186.339 305.069 185.908L308.431 184.708C309.727 184.245 311.065 183.914 312.427 183.72L314.365 183.442C316.446 183.145 318.561 183.17 320.635 183.516L323.582 184.007L323.596 184.009L323.608 184.012L328.108 185.012L328.132 185.017L331.245 185.866C332.87 186.309 334.434 186.952 335.901 187.777L339.51 189.807C340.956 190.62 342.502 191.246 344.107 191.669L357.303 195.141C359.448 195.706 361.674 195.9 363.885 195.716L376.229 194.687C377.673 194.567 379.1 194.286 380.482 193.85L387.83 191.529L394.482 188.942C395.995 188.354 397.428 187.579 398.749 186.636L402.362 184.056C403.236 183.431 404.058 182.735 404.817 181.975L407.146 179.646Z" fill="#B1CEB5"/>
<path d="M325 75C380.228 75 425 119.772 425 175V279.665C420.695 275.502 416.01 271.73 411 268.408V175C411 127.504 372.496 89 325 89H175C127.504 89 89 127.504 89 175V325C89 372.496 127.504 411 175 411H280.51C284.59 416.109 289.171 420.801 294.179 425H175L173.707 424.992C119.505 424.305 75.6946 380.495 75.0078 326.293L75 325V175C75 119.772 119.772 75 175 75H325Z" fill="#2F5D50"/>
<path d="M535.56 282V278.16L538.248 277.904C540.552 277.648 542.344 277.179 543.624 276.496C544.904 275.813 545.843 274.704 546.44 273.168C547.123 271.632 547.549 269.541 547.72 266.896L552.584 207.504C552.925 203.579 552.413 200.891 551.048 199.44C549.768 197.904 546.995 196.923 542.728 196.496L540.04 196.24V192.4H565.128L594.056 268.688H590.6L617.864 192.4H642.184V196.24L639.496 196.496C636.851 196.752 634.845 197.221 633.48 197.904C632.2 198.587 631.389 199.696 631.048 201.232C630.707 202.683 630.664 204.773 630.92 207.504L636.168 265.232C636.424 268.219 636.893 270.608 637.576 272.4C638.344 274.107 639.453 275.387 640.904 276.24C642.355 277.008 644.317 277.563 646.792 277.904L649.736 278.16V282H613V278.16L617.224 277.776C620.552 277.435 622.685 276.453 623.624 274.832C624.563 273.125 624.819 269.925 624.392 265.232L618.632 200.08L620.424 200.464L591.24 282H587.016L557.832 205.84L553.864 266.896C553.693 269.627 553.864 271.803 554.376 273.424C554.973 274.96 556.04 276.069 557.576 276.752C559.197 277.435 561.459 277.861 564.36 278.032L567.048 278.16V282H535.56ZM653.816 282V278.16L657.656 277.52C660.216 277.093 661.923 276.411 662.776 275.472C663.629 274.448 664.056 272.613 664.056 269.968V231.824C664.056 229.093 663.459 227.173 662.264 226.064C661.069 224.869 658.339 224.016 654.072 223.504V220.304L673.784 214.672H675.576V269.968C675.576 272.613 676.003 274.448 676.856 275.472C677.709 276.411 679.416 277.093 681.976 277.52L685.816 278.16V282H653.816ZM668.536 204.816C666.403 204.816 664.611 204.133 663.16 202.768C661.709 201.317 660.984 199.483 660.984 197.264C660.984 195.045 661.709 193.253 663.16 191.888C664.611 190.523 666.403 189.84 668.536 189.84C670.584 189.84 672.333 190.523 673.784 191.888C675.235 193.253 675.96 195.045 675.96 197.264C675.96 199.483 675.235 201.317 673.784 202.768C672.333 204.133 670.584 204.816 668.536 204.816ZM724.358 283.28C718.129 283.28 712.582 281.829 707.718 278.928C702.939 275.941 699.185 271.931 696.454 266.896C693.723 261.776 692.358 256.016 692.358 249.616C692.358 242.789 693.851 236.731 696.838 231.44C699.91 226.064 704.091 221.84 709.382 218.768C714.673 215.696 720.646 214.16 727.302 214.16C731.739 214.16 735.579 214.757 738.822 215.952C742.15 217.147 744.71 218.597 746.502 220.304C748.379 222.011 749.318 223.632 749.318 225.168C749.318 226.533 748.635 227.685 747.27 228.624C745.905 229.477 744.411 229.989 742.79 230.16C741.169 230.331 739.931 230.075 739.078 229.392L730.886 222.096C729.777 221.072 728.667 220.389 727.558 220.048C726.449 219.621 725.041 219.408 723.334 219.408C719.409 219.408 715.995 220.56 713.094 222.864C710.193 225.168 707.931 228.283 706.31 232.208C704.774 236.048 704.006 240.357 704.006 245.136C704.006 250.768 705.073 255.76 707.206 260.112C709.425 264.464 712.454 267.92 716.294 270.48C720.219 272.955 724.657 274.192 729.606 274.192C732.593 274.192 735.537 273.68 738.438 272.656C741.339 271.632 744.369 269.925 747.526 267.536L750.086 269.968C746.075 274.661 741.979 278.075 737.798 280.208C733.617 282.256 729.137 283.28 724.358 283.28ZM755.816 282V278.16L759.656 277.52C762.301 277.093 764.008 276.411 764.776 275.472C765.629 274.448 766.056 272.613 766.056 269.968V231.824C766.056 228.923 765.373 226.96 764.008 225.936C762.728 224.827 760.083 224.016 756.072 223.504V220.304L775.4 214.672H777.192V224.912H778.344C780.477 221.84 783.08 219.323 786.152 217.36C789.309 215.397 792.893 214.416 796.904 214.416C799.976 214.416 802.28 215.056 803.816 216.336C805.437 217.616 806.248 219.28 806.248 221.328C806.248 222.693 805.693 223.931 804.584 225.04C803.56 226.149 802.323 226.917 800.872 227.344C799.421 227.685 798.013 227.472 796.648 226.704L790.504 223.12C789.48 222.523 788.243 222.608 786.792 223.376C785.341 224.144 783.891 225.168 782.44 226.448C781.075 227.643 779.923 228.837 778.984 230.032C778.045 231.141 777.576 231.781 777.576 231.952V269.968C777.576 272.613 778.003 274.448 778.856 275.472C779.709 276.411 781.416 277.051 783.976 277.392L790.376 278.16V282H755.816ZM841.168 283.28C834.341 283.28 828.325 281.829 823.12 278.928C817.915 276.027 813.861 271.973 810.96 266.768C808.059 261.563 806.608 255.547 806.608 248.72C806.608 242.235 808.059 236.389 810.96 231.184C813.861 225.979 817.872 221.84 822.992 218.768C828.197 215.696 834.256 214.16 841.168 214.16C848.08 214.16 854.139 215.611 859.344 218.512C864.549 221.413 868.603 225.467 871.504 230.672C874.405 235.792 875.856 241.765 875.856 248.592C875.856 255.077 874.405 260.965 871.504 266.256C868.603 271.461 864.549 275.6 859.344 278.672C854.224 281.744 848.165 283.28 841.168 283.28ZM843.216 278.288C849.019 278.288 853.84 276.112 857.68 271.76C861.52 267.408 863.44 260.837 863.44 252.048C863.44 246.245 862.501 240.869 860.624 235.92C858.832 230.885 856.144 226.832 852.56 223.76C848.976 220.688 844.539 219.152 839.248 219.152C833.445 219.152 828.624 221.328 824.784 225.68C820.944 230.032 819.024 236.645 819.024 245.52C819.024 251.237 819.92 256.613 821.712 261.648C823.589 266.597 826.32 270.608 829.904 273.68C833.488 276.752 837.925 278.288 843.216 278.288ZM874.964 282V278.16C878.207 277.648 880.681 277.051 882.388 276.368C884.18 275.685 885.631 274.491 886.74 272.784C887.849 270.992 889.129 268.304 890.58 264.72L920.404 191.76H924.628L954.58 266.512C956.116 270.437 957.865 273.253 959.828 274.96C961.791 276.667 964.82 277.733 968.916 278.16V282H932.436V278.16L937.684 277.52C940.415 277.179 942.121 276.197 942.804 274.576C943.572 272.869 943.316 270.437 942.036 267.28L916.948 203.792H920.916L896.724 265.744C895.103 269.84 894.719 272.784 895.572 274.576C896.425 276.368 898.473 277.435 901.716 277.776L905.428 278.16V282H874.964ZM901.972 247.312V242.192H940.628V247.312H901.972ZM993.163 283.28C987.872 283.28 983.648 281.915 980.491 279.184C977.334 276.453 975.755 272.016 975.755 265.872V223.12H967.691V219.28C974.347 215.611 979.638 210.747 983.563 204.688H987.403V215.184V218.896V262.416C987.403 265.744 987.958 268.261 989.067 269.968C990.176 271.675 991.67 272.827 993.547 273.424C995.51 273.936 997.6 274.192 999.819 274.192C1002.72 274.192 1005.24 273.765 1007.37 272.912C1009.5 272.059 1011.51 271.077 1013.39 269.968L1015.69 272.656C1013.05 275.387 1009.85 277.861 1006.09 280.08C1002.34 282.213 998.027 283.28 993.163 283.28ZM981.771 223.12V215.44H1014.16V217.36L1010.83 223.12H981.771ZM1016.67 282V278.16L1020.51 277.52C1023.07 277.093 1024.77 276.411 1025.63 275.472C1026.48 274.448 1026.91 272.613 1026.91 269.968V196.752C1026.91 194.021 1026.31 192.101 1025.12 190.992C1023.92 189.797 1021.19 188.944 1016.92 188.432V185.232L1036.64 179.6H1038.43V269.968C1038.43 272.613 1038.85 274.448 1039.71 275.472C1040.56 276.411 1042.27 277.093 1044.83 277.52L1048.67 278.16V282H1016.67ZM1070.47 283.28C1066.63 283.28 1063.6 282.683 1061.38 281.488C1059.25 280.208 1057.71 278.629 1056.77 276.752C1055.92 274.789 1055.49 272.827 1055.49 270.864C1055.49 267.963 1056.52 265.061 1058.56 262.16C1060.7 259.173 1064.15 256.187 1068.93 253.2C1073.8 250.213 1080.32 247.269 1088.52 244.368L1091.72 243.216L1092.1 230.544C1092.19 227.387 1091.2 224.784 1089.16 222.736C1087.11 220.603 1084.25 219.536 1080.58 219.536C1077.68 219.536 1075.12 220.517 1072.9 222.48C1070.68 224.443 1069.1 227.515 1068.16 231.696C1067.99 232.549 1067.1 233.36 1065.48 234.128C1063.94 234.811 1061.89 235.152 1059.33 235.152C1057.88 235.152 1056.77 234.981 1056 234.64C1055.24 234.299 1055.02 233.531 1055.36 232.336C1056.73 229.008 1058.99 225.979 1062.15 223.248C1065.31 220.517 1068.89 218.341 1072.9 216.72C1076.91 215.013 1080.88 214.16 1084.8 214.16C1090.35 214.16 1094.87 215.483 1098.37 218.128C1101.96 220.773 1103.66 224.485 1103.49 229.264L1102.21 268.304C1102.13 271.632 1102.94 273.765 1104.64 274.704C1106.44 275.643 1109.81 276.283 1114.76 276.624V279.568L1110.28 280.72C1107.55 281.573 1105.37 282.128 1103.75 282.384C1102.21 282.725 1101.02 282.896 1100.16 282.896C1097.86 282.896 1096.11 282.384 1094.92 281.36C1093.81 280.336 1093 279.141 1092.48 277.776C1092.06 276.411 1091.76 275.301 1091.59 274.448H1090.56C1086.89 278.032 1083.44 280.421 1080.2 281.616C1077.04 282.725 1073.8 283.28 1070.47 283.28ZM1077.76 274.832C1080.84 274.832 1083.35 274.363 1085.32 273.424C1087.36 272.4 1089.2 271.333 1090.82 270.224L1091.59 247.568L1090.56 247.952C1084.42 250.256 1079.73 252.517 1076.48 254.736C1073.24 256.955 1071.02 259.088 1069.83 261.136C1068.72 263.184 1068.16 265.061 1068.16 266.768C1068.16 272.144 1071.36 274.832 1077.76 274.832ZM1140.35 283.28C1137.1 283.28 1133.65 282.896 1129.98 282.128C1126.4 281.36 1123.45 280.336 1121.15 279.056V261.776H1124.86C1125.8 267.749 1127.85 272.059 1131 274.704C1134.25 277.264 1137.92 278.544 1142.01 278.544C1145.94 278.544 1149.01 277.52 1151.23 275.472C1153.45 273.424 1154.56 270.736 1154.56 267.408C1154.56 264.421 1153.66 262.117 1151.87 260.496C1150.16 258.789 1147.81 257.168 1144.83 255.632L1135.61 250.768C1130.15 247.867 1126.52 244.965 1124.73 242.064C1122.94 239.163 1122.04 236.261 1122.04 233.36C1122.04 229.52 1123.07 226.192 1125.12 223.376C1127.25 220.475 1130.15 218.213 1133.82 216.592C1137.49 214.971 1141.67 214.16 1146.36 214.16C1149.52 214.16 1152.46 214.501 1155.2 215.184C1158.01 215.867 1160.53 216.72 1162.75 217.744V232.592H1159.04C1158.52 230.117 1157.67 227.856 1156.48 225.808C1155.28 223.76 1153.66 222.096 1151.61 220.816C1149.65 219.536 1147.13 218.896 1144.06 218.896C1140.22 218.896 1137.28 219.877 1135.23 221.84C1133.18 223.803 1132.16 226.235 1132.16 229.136C1132.16 231.525 1132.88 233.616 1134.33 235.408C1135.87 237.2 1138.34 238.992 1141.76 240.784L1150.2 245.136C1154.98 247.525 1158.57 250 1160.96 252.56C1163.43 255.12 1164.67 258.533 1164.67 262.8C1164.67 267.237 1163.52 270.992 1161.21 274.064C1158.91 277.051 1155.88 279.355 1152.12 280.976C1148.45 282.512 1144.53 283.28 1140.35 283.28Z" fill="#172033"/>
<path d="M532.616 339V338.04C533.427 337.912 534.045 337.763 534.472 337.592C534.92 337.421 535.283 337.123 535.56 336.696C535.837 336.248 536.157 335.576 536.52 334.68L543.976 316.44H545.032L552.52 335.128C552.904 336.109 553.341 336.813 553.832 337.24C554.323 337.667 555.08 337.933 556.104 338.04V339H546.984V338.04L548.296 337.88C548.979 337.795 549.405 337.549 549.576 337.144C549.768 336.717 549.704 336.109 549.384 335.32L543.112 319.448H544.104L538.056 334.936C537.651 335.96 537.555 336.696 537.768 337.144C537.981 337.592 538.493 337.859 539.304 337.944L540.232 338.04V339H532.616ZM539.368 330.328V329.048H549.032V330.328H539.368ZM570.808 339.32C569.251 339.32 567.864 338.957 566.648 338.232C565.454 337.485 564.515 336.483 563.832 335.224C563.15 333.944 562.808 332.504 562.808 330.904C562.808 329.197 563.182 327.683 563.928 326.36C564.696 325.016 565.742 323.96 567.064 323.192C568.387 322.424 569.88 322.04 571.544 322.04C572.654 322.04 573.614 322.189 574.424 322.488C575.256 322.787 575.896 323.149 576.344 323.576C576.814 324.003 577.048 324.408 577.048 324.792C577.048 325.133 576.878 325.421 576.536 325.656C576.195 325.869 575.822 325.997 575.416 326.04C575.011 326.083 574.702 326.019 574.488 325.848L572.44 324.024C572.163 323.768 571.886 323.597 571.608 323.512C571.331 323.405 570.979 323.352 570.552 323.352C569.571 323.352 568.718 323.64 567.992 324.216C567.267 324.792 566.702 325.571 566.296 326.552C565.912 327.512 565.72 328.589 565.72 329.784C565.72 331.192 565.987 332.44 566.52 333.528C567.075 334.616 567.832 335.48 568.792 336.12C569.774 336.739 570.883 337.048 572.12 337.048C572.867 337.048 573.603 336.92 574.328 336.664C575.054 336.408 575.811 335.981 576.6 335.384L577.24 335.992C576.238 337.165 575.214 338.019 574.168 338.552C573.123 339.064 572.003 339.32 570.808 339.32ZM587.542 339.32C585.835 339.32 584.331 338.957 583.03 338.232C581.729 337.507 580.715 336.493 579.99 335.192C579.265 333.891 578.902 332.387 578.902 330.68C578.902 329.059 579.265 327.597 579.99 326.296C580.715 324.995 581.718 323.96 582.998 323.192C584.299 322.424 585.814 322.04 587.542 322.04C589.27 322.04 590.785 322.403 592.086 323.128C593.387 323.853 594.401 324.867 595.126 326.168C595.851 327.448 596.214 328.941 596.214 330.648C596.214 332.269 595.851 333.741 595.126 335.064C594.401 336.365 593.387 337.4 592.086 338.168C590.806 338.936 589.291 339.32 587.542 339.32ZM588.054 338.072C589.505 338.072 590.71 337.528 591.67 336.44C592.63 335.352 593.11 333.709 593.11 331.512C593.11 330.061 592.875 328.717 592.406 327.48C591.958 326.221 591.286 325.208 590.39 324.44C589.494 323.672 588.385 323.288 587.062 323.288C585.611 323.288 584.406 323.832 583.446 324.92C582.486 326.008 582.006 327.661 582.006 329.88C582.006 331.309 582.23 332.653 582.678 333.912C583.147 335.149 583.83 336.152 584.726 336.92C585.622 337.688 586.731 338.072 588.054 338.072ZM598.079 339V338.04L599.039 337.88C599.679 337.773 600.106 337.603 600.319 337.368C600.532 337.112 600.639 336.653 600.639 335.992V326.456C600.639 325.773 600.49 325.293 600.191 325.016C599.892 324.717 599.21 324.504 598.143 324.376V323.576L602.975 322.168H603.423V324.504H603.615C604.639 323.608 605.578 322.979 606.431 322.616C607.284 322.232 608.202 322.04 609.183 322.04C610.122 322.04 610.954 322.232 611.679 322.616C612.426 322.979 612.938 323.64 613.215 324.6H613.375C614.484 323.661 615.466 323 616.319 322.616C617.194 322.232 618.122 322.04 619.103 322.04C619.892 322.04 620.607 322.168 621.247 322.424C621.887 322.659 622.399 323.064 622.783 323.64C623.167 324.195 623.359 324.973 623.359 325.976V335.992C623.359 336.653 623.466 337.112 623.679 337.368C623.892 337.603 624.319 337.773 624.959 337.88L625.919 338.04V339H617.919V338.04L618.879 337.88C619.519 337.773 619.946 337.603 620.159 337.368C620.372 337.112 620.479 336.653 620.479 335.992V326.936C620.479 326.083 620.351 325.443 620.095 325.016C619.86 324.589 619.53 324.312 619.103 324.184C618.676 324.035 618.186 323.96 617.631 323.96C616.842 323.96 616.127 324.109 615.487 324.408C614.847 324.685 614.164 325.133 613.439 325.752V335.992C613.439 336.653 613.546 337.112 613.759 337.368C613.972 337.603 614.399 337.773 615.039 337.88L615.999 338.04V339H607.999V338.04L608.959 337.88C609.599 337.773 610.026 337.603 610.239 337.368C610.452 337.112 610.559 336.653 610.559 335.992V326.936C610.559 326.083 610.431 325.443 610.175 325.016C609.94 324.589 609.61 324.312 609.183 324.184C608.756 324.035 608.266 323.96 607.711 323.96C606.922 323.96 606.196 324.109 605.535 324.408C604.874 324.685 604.202 325.133 603.519 325.752V335.992C603.519 336.653 603.626 337.112 603.839 337.368C604.052 337.603 604.479 337.773 605.119 337.88L606.079 338.04V339H598.079ZM627.048 339V338.04L628.008 337.88C628.648 337.773 629.074 337.603 629.288 337.368C629.501 337.112 629.608 336.653 629.608 335.992V326.456C629.608 325.773 629.458 325.293 629.16 325.016C628.861 324.717 628.178 324.504 627.112 324.376V323.576L631.944 322.168H632.392V324.504H632.584C633.608 323.608 634.546 322.979 635.4 322.616C636.253 322.232 637.17 322.04 638.152 322.04C639.09 322.04 639.922 322.232 640.648 322.616C641.394 322.979 641.906 323.64 642.184 324.6H642.344C643.453 323.661 644.434 323 645.288 322.616C646.162 322.232 647.09 322.04 648.072 322.04C648.861 322.04 649.576 322.168 650.216 322.424C650.856 322.659 651.368 323.064 651.752 323.64C652.136 324.195 652.328 324.973 652.328 325.976V335.992C652.328 336.653 652.434 337.112 652.648 337.368C652.861 337.603 653.288 337.773 653.928 337.88L654.888 338.04V339H646.888V338.04L647.848 337.88C648.488 337.773 648.914 337.603 649.128 337.368C649.341 337.112 649.448 336.653 649.448 335.992V326.936C649.448 326.083 649.32 325.443 649.064 325.016C648.829 324.589 648.498 324.312 648.072 324.184C647.645 324.035 647.154 323.96 646.6 323.96C645.81 323.96 645.096 324.109 644.456 324.408C643.816 324.685 643.133 325.133 642.408 325.752V335.992C642.408 336.653 642.514 337.112 642.728 337.368C642.941 337.603 643.368 337.773 644.008 337.88L644.968 338.04V339H636.968V338.04L637.928 337.88C638.568 337.773 638.994 337.603 639.208 337.368C639.421 337.112 639.528 336.653 639.528 335.992V326.936C639.528 326.083 639.4 325.443 639.144 325.016C638.909 324.589 638.578 324.312 638.152 324.184C637.725 324.035 637.234 323.96 636.68 323.96C635.89 323.96 635.165 324.109 634.504 324.408C633.842 324.685 633.17 325.133 632.488 325.752V335.992C632.488 336.653 632.594 337.112 632.808 337.368C633.021 337.603 633.448 337.773 634.088 337.88L635.048 338.04V339H627.048ZM662.961 339.32C661.467 339.32 660.283 338.936 659.409 338.168C658.555 337.4 658.129 336.333 658.129 334.968V325.56C658.129 324.856 657.969 324.365 657.649 324.088C657.329 323.811 656.71 323.629 655.793 323.544V322.744L660.465 322.104H661.009V334.008C661.009 334.797 661.137 335.437 661.393 335.928C661.67 336.419 662.086 336.792 662.641 337.048C663.217 337.283 663.931 337.4 664.785 337.4C665.595 337.4 666.321 337.251 666.961 336.952C667.601 336.653 668.23 336.152 668.849 335.448V325.56C668.849 324.856 668.678 324.365 668.337 324.088C668.017 323.811 667.355 323.629 666.353 323.544V322.744L671.185 322.104H671.729V334.968C671.729 335.693 671.889 336.195 672.208 336.472C672.55 336.728 673.243 336.92 674.289 337.048V337.912L669.393 339.064H668.945V336.856H668.753C667.729 337.752 666.779 338.392 665.905 338.776C665.051 339.139 664.07 339.32 662.961 339.32ZM675.485 339V338.04L676.445 337.88C677.085 337.773 677.512 337.603 677.725 337.368C677.939 337.112 678.045 336.653 678.045 335.992V326.456C678.045 325.773 677.896 325.293 677.597 325.016C677.299 324.717 676.616 324.504 675.549 324.376V323.576L680.381 322.168H680.829V324.504H681.021C682.045 323.608 682.995 322.979 683.869 322.616C684.744 322.232 685.768 322.04 686.941 322.04C688.456 322.04 689.64 322.424 690.493 323.192C691.368 323.939 691.805 325.005 691.805 326.392V335.992C691.805 336.653 691.912 337.112 692.125 337.368C692.339 337.603 692.765 337.773 693.405 337.88L694.365 338.04V339H686.365V338.04L687.325 337.88C687.965 337.773 688.392 337.603 688.605 337.368C688.819 337.112 688.925 336.653 688.925 335.992V327.352C688.925 326.563 688.787 325.923 688.509 325.432C688.232 324.941 687.816 324.579 687.261 324.344C686.728 324.088 686.035 323.96 685.181 323.96C684.349 323.96 683.603 324.109 682.941 324.408C682.28 324.685 681.608 325.133 680.925 325.752V335.992C680.925 336.653 681.032 337.112 681.245 337.368C681.459 337.603 681.885 337.773 682.525 337.88L683.485 338.04V339H675.485ZM695.454 339V338.04L696.414 337.88C697.054 337.773 697.481 337.603 697.694 337.368C697.907 337.112 698.014 336.653 698.014 335.992V326.456C698.014 325.773 697.865 325.293 697.566 325.016C697.267 324.717 696.585 324.504 695.518 324.376V323.576L700.446 322.168H700.894V335.992C700.894 336.653 701.001 337.112 701.214 337.368C701.427 337.603 701.854 337.773 702.494 337.88L703.454 338.04V339H695.454ZM699.134 319.704C698.601 319.704 698.153 319.533 697.79 319.192C697.427 318.829 697.246 318.371 697.246 317.816C697.246 317.261 697.427 316.813 697.79 316.472C698.153 316.131 698.601 315.96 699.134 315.96C699.646 315.96 700.083 316.131 700.446 316.472C700.809 316.813 700.99 317.261 700.99 317.816C700.99 318.371 700.809 318.829 700.446 319.192C700.083 319.533 699.646 319.704 699.134 319.704ZM711.01 339.32C709.687 339.32 708.631 338.979 707.842 338.296C707.052 337.613 706.658 336.504 706.658 334.968V324.28H704.642V323.32C706.306 322.403 707.628 321.187 708.61 319.672H709.57V322.296V323.224V334.104C709.57 334.936 709.708 335.565 709.986 335.992C710.263 336.419 710.636 336.707 711.106 336.856C711.596 336.984 712.119 337.048 712.674 337.048C713.399 337.048 714.028 336.941 714.562 336.728C715.095 336.515 715.596 336.269 716.066 335.992L716.642 336.664C715.98 337.347 715.18 337.965 714.242 338.52C713.303 339.053 712.226 339.32 711.01 339.32ZM708.161 324.28V322.36H716.258V322.84L715.426 324.28H708.161ZM719.405 346.904V346.424L725.069 338.264L719.501 325.816C719.159 325.069 718.797 324.504 718.413 324.12C718.05 323.736 717.644 323.501 717.197 323.416L716.652 323.32V322.36H724.589V323.32L723.789 323.384C722.274 323.512 721.837 324.323 722.477 325.816L726.893 336.216L725.965 336.248L729.837 326.488C730.263 325.443 730.349 324.685 730.093 324.216C729.858 323.725 729.367 323.448 728.621 323.384L727.949 323.32V322.36H734.605V323.32L733.933 323.416C733.57 323.459 733.261 323.565 733.005 323.736C732.749 323.907 732.493 324.195 732.237 324.6C732.002 325.005 731.725 325.592 731.405 326.36L722.701 346.904H719.405ZM745.43 339.32C744.47 339.32 743.712 339.171 743.158 338.872C742.624 338.552 742.24 338.157 742.006 337.688C741.792 337.197 741.686 336.707 741.686 336.216C741.686 335.491 741.942 334.765 742.454 334.04C742.987 333.293 743.851 332.547 745.046 331.8C746.262 331.053 747.894 330.317 749.942 329.592L750.742 329.304L750.838 326.136C750.859 325.347 750.614 324.696 750.102 324.184C749.59 323.651 748.875 323.384 747.958 323.384C747.232 323.384 746.592 323.629 746.038 324.12C745.483 324.611 745.088 325.379 744.854 326.424C744.811 326.637 744.587 326.84 744.182 327.032C743.798 327.203 743.286 327.288 742.646 327.288C742.283 327.288 742.006 327.245 741.814 327.16C741.622 327.075 741.568 326.883 741.654 326.584C741.995 325.752 742.56 324.995 743.35 324.312C744.139 323.629 745.035 323.085 746.038 322.68C747.04 322.253 748.032 322.04 749.014 322.04C750.4 322.04 751.531 322.371 752.406 323.032C753.302 323.693 753.728 324.621 753.686 325.816L753.366 335.576C753.344 336.408 753.547 336.941 753.974 337.176C754.422 337.411 755.264 337.571 756.502 337.656V338.392L755.382 338.68C754.699 338.893 754.155 339.032 753.75 339.096C753.366 339.181 753.067 339.224 752.854 339.224C752.278 339.224 751.84 339.096 751.542 338.84C751.264 338.584 751.062 338.285 750.934 337.944C750.827 337.603 750.752 337.325 750.71 337.112H750.454C749.536 338.008 748.672 338.605 747.862 338.904C747.072 339.181 746.262 339.32 745.43 339.32ZM747.254 337.208C748.022 337.208 748.651 337.091 749.142 336.856C749.654 336.6 750.112 336.333 750.518 336.056L750.71 330.392L750.454 330.488C748.918 331.064 747.744 331.629 746.934 332.184C746.123 332.739 745.568 333.272 745.27 333.784C744.992 334.296 744.854 334.765 744.854 335.192C744.854 336.536 745.654 337.208 747.254 337.208ZM763.603 339.32C762.281 339.32 761.225 338.979 760.435 338.296C759.646 337.613 759.251 336.504 759.251 334.968V324.28H757.235V323.32C758.899 322.403 760.222 321.187 761.203 319.672H762.163V322.296V323.224V334.104C762.163 334.936 762.302 335.565 762.579 335.992C762.857 336.419 763.23 336.707 763.699 336.856C764.19 336.984 764.713 337.048 765.267 337.048C765.993 337.048 766.622 336.941 767.155 336.728C767.689 336.515 768.19 336.269 768.659 335.992L769.235 336.664C768.574 337.347 767.774 337.965 766.835 338.52C765.897 339.053 764.819 339.32 763.603 339.32ZM760.755 324.28V322.36H768.851V322.84L768.019 324.28H760.755ZM769.479 339V338.04L770.439 337.88C771.079 337.773 771.506 337.603 771.719 337.368C771.933 337.112 772.039 336.653 772.039 335.992V317.688C772.039 317.005 771.89 316.525 771.591 316.248C771.293 315.949 770.61 315.736 769.543 315.608V314.808L774.471 313.4H774.919V335.992C774.919 336.653 775.026 337.112 775.239 337.368C775.453 337.603 775.879 337.773 776.519 337.88L777.479 338.04V339H769.479ZM782.93 339.32C781.97 339.32 781.212 339.171 780.658 338.872C780.124 338.552 779.74 338.157 779.506 337.688C779.292 337.197 779.186 336.707 779.186 336.216C779.186 335.491 779.442 334.765 779.954 334.04C780.487 333.293 781.351 332.547 782.546 331.8C783.762 331.053 785.394 330.317 787.442 329.592L788.242 329.304L788.338 326.136C788.359 325.347 788.114 324.696 787.602 324.184C787.09 323.651 786.375 323.384 785.458 323.384C784.732 323.384 784.092 323.629 783.538 324.12C782.983 324.611 782.588 325.379 782.354 326.424C782.311 326.637 782.087 326.84 781.682 327.032C781.298 327.203 780.786 327.288 780.146 327.288C779.783 327.288 779.506 327.245 779.314 327.16C779.122 327.075 779.068 326.883 779.154 326.584C779.495 325.752 780.06 324.995 780.85 324.312C781.639 323.629 782.535 323.085 783.538 322.68C784.54 322.253 785.532 322.04 786.514 322.04C787.9 322.04 789.031 322.371 789.906 323.032C790.802 323.693 791.228 324.621 791.186 325.816L790.866 335.576C790.844 336.408 791.047 336.941 791.474 337.176C791.922 337.411 792.764 337.571 794.002 337.656V338.392L792.882 338.68C792.199 338.893 791.655 339.032 791.25 339.096C790.866 339.181 790.567 339.224 790.354 339.224C789.778 339.224 789.34 339.096 789.042 338.84C788.764 338.584 788.562 338.285 788.434 337.944C788.327 337.603 788.252 337.325 788.21 337.112H787.954C787.036 338.008 786.172 338.605 785.362 338.904C784.572 339.181 783.762 339.32 782.93 339.32ZM784.754 337.208C785.522 337.208 786.151 337.091 786.642 336.856C787.154 336.6 787.612 336.333 788.018 336.056L788.21 330.392L787.954 330.488C786.418 331.064 785.244 331.629 784.434 332.184C783.623 332.739 783.068 333.272 782.77 333.784C782.492 334.296 782.354 334.765 782.354 335.192C782.354 336.536 783.154 337.208 784.754 337.208ZM800.399 339.32C799.589 339.32 798.725 339.224 797.807 339.032C796.911 338.84 796.175 338.584 795.599 338.264V333.944H796.527C796.762 335.437 797.274 336.515 798.063 337.176C798.874 337.816 799.791 338.136 800.815 338.136C801.797 338.136 802.565 337.88 803.119 337.368C803.674 336.856 803.951 336.184 803.951 335.352C803.951 334.605 803.727 334.029 803.279 333.624C802.853 333.197 802.266 332.792 801.519 332.408L799.215 331.192C797.85 330.467 796.943 329.741 796.495 329.016C796.047 328.291 795.823 327.565 795.823 326.84C795.823 325.88 796.079 325.048 796.591 324.344C797.125 323.619 797.85 323.053 798.767 322.648C799.685 322.243 800.73 322.04 801.903 322.04C802.693 322.04 803.429 322.125 804.111 322.296C804.815 322.467 805.445 322.68 805.999 322.936V326.648H805.071C804.943 326.029 804.73 325.464 804.431 324.952C804.133 324.44 803.727 324.024 803.215 323.704C802.725 323.384 802.095 323.224 801.327 323.224C800.367 323.224 799.631 323.469 799.119 323.96C798.607 324.451 798.351 325.059 798.351 325.784C798.351 326.381 798.533 326.904 798.895 327.352C799.279 327.8 799.898 328.248 800.751 328.696L802.863 329.784C804.058 330.381 804.954 331 805.551 331.64C806.17 332.28 806.479 333.133 806.479 334.2C806.479 335.309 806.191 336.248 805.615 337.016C805.039 337.763 804.282 338.339 803.343 338.744C802.426 339.128 801.445 339.32 800.399 339.32ZM815.74 339V338.04L816.7 337.88C817.361 337.773 817.788 337.603 817.98 337.368C818.193 337.112 818.3 336.653 818.3 335.992V324.28H815.452V323.8L816.284 322.36H818.3V321.848C818.3 320.696 818.534 319.608 819.004 318.584C819.494 317.539 820.145 316.621 820.956 315.832C821.788 315.021 822.705 314.392 823.708 313.944C824.732 313.496 825.777 313.272 826.844 313.272C827.676 313.272 828.422 313.432 829.084 313.752C829.766 314.072 830.108 314.499 830.108 315.032C830.108 315.395 829.916 315.715 829.532 315.992C829.169 316.269 828.774 316.301 828.348 316.088L825.884 314.936C825.628 314.829 825.382 314.776 825.148 314.776C824.614 314.776 824.038 315.032 823.42 315.544C822.801 316.035 822.268 316.728 821.82 317.624C821.393 318.499 821.18 319.512 821.18 320.664V322.36H826.62V322.84L825.788 324.28H821.18V335.672C821.18 336.397 821.308 336.92 821.564 337.24C821.82 337.56 822.278 337.763 822.94 337.848L824.38 338.04V339H815.74ZM835.636 339.32C833.929 339.32 832.425 338.957 831.124 338.232C829.822 337.507 828.809 336.493 828.084 335.192C827.358 333.891 826.996 332.387 826.996 330.68C826.996 329.059 827.358 327.597 828.084 326.296C828.809 324.995 829.812 323.96 831.092 323.192C832.393 322.424 833.908 322.04 835.636 322.04C837.364 322.04 838.878 322.403 840.18 323.128C841.481 323.853 842.494 324.867 843.22 326.168C843.945 327.448 844.308 328.941 844.308 330.648C844.308 332.269 843.945 333.741 843.22 335.064C842.494 336.365 841.481 337.4 840.18 338.168C838.9 338.936 837.385 339.32 835.636 339.32ZM836.148 338.072C837.598 338.072 838.804 337.528 839.764 336.44C840.724 335.352 841.204 333.709 841.204 331.512C841.204 330.061 840.969 328.717 840.5 327.48C840.052 326.221 839.38 325.208 838.484 324.44C837.588 323.672 836.478 323.288 835.156 323.288C833.705 323.288 832.5 323.832 831.54 324.92C830.58 326.008 830.1 327.661 830.1 329.88C830.1 331.309 830.324 332.653 830.772 333.912C831.241 335.149 831.924 336.152 832.82 336.92C833.716 337.688 834.825 338.072 836.148 338.072ZM846.173 339V338.04L847.133 337.88C847.794 337.773 848.221 337.603 848.413 337.368C848.626 337.112 848.733 336.653 848.733 335.992V326.456C848.733 325.731 848.562 325.24 848.221 324.984C847.901 324.707 847.239 324.504 846.237 324.376V323.576L851.069 322.168H851.517V324.728H851.805C852.338 323.96 852.989 323.331 853.757 322.84C854.546 322.349 855.442 322.104 856.445 322.104C857.213 322.104 857.789 322.264 858.173 322.584C858.578 322.904 858.781 323.32 858.781 323.832C858.781 324.173 858.642 324.483 858.365 324.76C858.109 325.037 857.799 325.229 857.437 325.336C857.074 325.421 856.722 325.368 856.381 325.176L854.845 324.28C854.589 324.131 854.279 324.152 853.917 324.344C853.554 324.536 853.191 324.792 852.829 325.112C852.487 325.411 852.199 325.709 851.965 326.008C851.73 326.285 851.613 326.445 851.613 326.488V335.992C851.613 336.653 851.719 337.112 851.933 337.368C852.146 337.603 852.573 337.763 853.213 337.848L854.813 338.04V339H846.173ZM865.642 339V338.04L866.602 337.88C867.242 337.773 867.668 337.603 867.882 337.368C868.095 337.112 868.202 336.653 868.202 335.992V326.456C868.202 325.773 868.052 325.293 867.754 325.016C867.455 324.717 866.772 324.504 865.706 324.376V323.576L870.538 322.168H870.986V324.504H871.178C872.202 323.608 873.14 322.979 873.994 322.616C874.847 322.232 875.764 322.04 876.746 322.04C877.684 322.04 878.516 322.232 879.242 322.616C879.988 322.979 880.5 323.64 880.778 324.6H880.938C882.047 323.661 883.028 323 883.882 322.616C884.756 322.232 885.684 322.04 886.666 322.04C887.455 322.04 888.17 322.168 888.81 322.424C889.45 322.659 889.962 323.064 890.346 323.64C890.73 324.195 890.922 324.973 890.922 325.976V335.992C890.922 336.653 891.028 337.112 891.242 337.368C891.455 337.603 891.882 337.773 892.522 337.88L893.482 338.04V339H885.482V338.04L886.442 337.88C887.082 337.773 887.508 337.603 887.722 337.368C887.935 337.112 888.042 336.653 888.042 335.992V326.936C888.042 326.083 887.914 325.443 887.658 325.016C887.423 324.589 887.092 324.312 886.666 324.184C886.239 324.035 885.748 323.96 885.194 323.96C884.404 323.96 883.69 324.109 883.05 324.408C882.41 324.685 881.727 325.133 881.002 325.752V335.992C881.002 336.653 881.108 337.112 881.322 337.368C881.535 337.603 881.962 337.773 882.602 337.88L883.562 338.04V339H875.562V338.04L876.522 337.88C877.162 337.773 877.588 337.603 877.802 337.368C878.015 337.112 878.122 336.653 878.122 335.992V326.936C878.122 326.083 877.994 325.443 877.738 325.016C877.503 324.589 877.172 324.312 876.746 324.184C876.319 324.035 875.828 323.96 875.274 323.96C874.484 323.96 873.759 324.109 873.098 324.408C872.436 324.685 871.764 325.133 871.082 325.752V335.992C871.082 336.653 871.188 337.112 871.402 337.368C871.615 337.603 872.042 337.773 872.682 337.88L873.642 338.04V339H865.642ZM894.61 339V338.04L895.57 337.88C896.21 337.773 896.637 337.603 896.85 337.368C897.064 337.112 897.17 336.653 897.17 335.992V326.456C897.17 325.773 897.021 325.293 896.722 325.016C896.424 324.717 895.741 324.504 894.674 324.376V323.576L899.602 322.168H900.05V335.992C900.05 336.653 900.157 337.112 900.37 337.368C900.584 337.603 901.01 337.773 901.65 337.88L902.61 338.04V339H894.61ZM898.29 319.704C897.757 319.704 897.309 319.533 896.946 319.192C896.584 318.829 896.402 318.371 896.402 317.816C896.402 317.261 896.584 316.813 896.946 316.472C897.309 316.131 897.757 315.96 898.29 315.96C898.802 315.96 899.24 316.131 899.602 316.472C899.965 316.813 900.146 317.261 900.146 317.816C900.146 318.371 899.965 318.829 899.602 319.192C899.24 319.533 898.802 319.704 898.29 319.704ZM912.246 339.32C910.688 339.32 909.302 338.957 908.086 338.232C906.891 337.485 905.952 336.483 905.27 335.224C904.587 333.944 904.246 332.504 904.246 330.904C904.246 329.197 904.619 327.683 905.366 326.36C906.134 325.016 907.179 323.96 908.502 323.192C909.824 322.424 911.318 322.04 912.982 322.04C914.091 322.04 915.051 322.189 915.862 322.488C916.694 322.787 917.334 323.149 917.782 323.576C918.251 324.003 918.486 324.408 918.486 324.792C918.486 325.133 918.315 325.421 917.974 325.656C917.632 325.869 917.259 325.997 916.854 326.04C916.448 326.083 916.139 326.019 915.926 325.848L913.878 324.024C913.6 323.768 913.323 323.597 913.046 323.512C912.768 323.405 912.416 323.352 911.99 323.352C911.008 323.352 910.155 323.64 909.43 324.216C908.704 324.792 908.139 325.571 907.734 326.552C907.35 327.512 907.158 328.589 907.158 329.784C907.158 331.192 907.424 332.44 907.958 333.528C908.512 334.616 909.27 335.48 910.23 336.12C911.211 336.739 912.32 337.048 913.558 337.048C914.304 337.048 915.04 336.92 915.766 336.664C916.491 336.408 917.248 335.981 918.038 335.384L918.678 335.992C917.675 337.165 916.651 338.019 915.606 338.552C914.56 339.064 913.44 339.32 912.246 339.32ZM920.11 339V338.04L921.07 337.88C921.732 337.773 922.158 337.603 922.35 337.368C922.564 337.112 922.67 336.653 922.67 335.992V326.456C922.67 325.731 922.5 325.24 922.158 324.984C921.838 324.707 921.177 324.504 920.174 324.376V323.576L925.006 322.168H925.454V324.728H925.742C926.276 323.96 926.926 323.331 927.694 322.84C928.484 322.349 929.38 322.104 930.382 322.104C931.15 322.104 931.726 322.264 932.11 322.584C932.516 322.904 932.718 323.32 932.718 323.832C932.718 324.173 932.58 324.483 932.302 324.76C932.046 325.037 931.737 325.229 931.374 325.336C931.012 325.421 930.66 325.368 930.318 325.176L928.782 324.28C928.526 324.131 928.217 324.152 927.854 324.344C927.492 324.536 927.129 324.792 926.766 325.112C926.425 325.411 926.137 325.709 925.902 326.008C925.668 326.285 925.55 326.445 925.55 326.488V335.992C925.55 336.653 925.657 337.112 925.87 337.368C926.084 337.603 926.51 337.763 927.15 337.848L928.75 338.04V339H920.11ZM941.448 339.32C939.742 339.32 938.238 338.957 936.936 338.232C935.635 337.507 934.622 336.493 933.896 335.192C933.171 333.891 932.808 332.387 932.808 330.68C932.808 329.059 933.171 327.597 933.896 326.296C934.622 324.995 935.624 323.96 936.904 323.192C938.206 322.424 939.72 322.04 941.448 322.04C943.176 322.04 944.691 322.403 945.992 323.128C947.294 323.853 948.307 324.867 949.032 326.168C949.758 327.448 950.12 328.941 950.12 330.648C950.12 332.269 949.758 333.741 949.032 335.064C948.307 336.365 947.294 337.4 945.992 338.168C944.712 338.936 943.198 339.32 941.448 339.32ZM941.96 338.072C943.411 338.072 944.616 337.528 945.576 336.44C946.536 335.352 947.016 333.709 947.016 331.512C947.016 330.061 946.782 328.717 946.312 327.48C945.864 326.221 945.192 325.208 944.296 324.44C943.4 323.672 942.291 323.288 940.968 323.288C939.518 323.288 938.312 323.832 937.352 324.92C936.392 326.008 935.912 327.661 935.912 329.88C935.912 331.309 936.136 332.653 936.584 333.912C937.054 335.149 937.736 336.152 938.632 336.92C939.528 337.688 940.638 338.072 941.96 338.072ZM951.985 339V338.04L952.945 337.88C953.585 337.773 954.012 337.603 954.225 337.368C954.439 337.112 954.545 336.653 954.545 335.992V326.456C954.545 325.773 954.396 325.293 954.097 325.016C953.799 324.717 953.116 324.504 952.049 324.376V323.576L956.881 322.168H957.329V324.504H957.521C958.545 323.608 959.495 322.979 960.369 322.616C961.244 322.232 962.268 322.04 963.441 322.04C964.956 322.04 966.14 322.424 966.993 323.192C967.868 323.939 968.305 325.005 968.305 326.392V335.992C968.305 336.653 968.412 337.112 968.625 337.368C968.839 337.603 969.265 337.773 969.905 337.88L970.865 338.04V339H962.865V338.04L963.825 337.88C964.465 337.773 964.892 337.603 965.105 337.368C965.319 337.112 965.425 336.653 965.425 335.992V327.352C965.425 326.563 965.287 325.923 965.009 325.432C964.732 324.941 964.316 324.579 963.761 324.344C963.228 324.088 962.535 323.96 961.681 323.96C960.849 323.96 960.103 324.109 959.441 324.408C958.78 324.685 958.108 325.133 957.425 325.752V335.992C957.425 336.653 957.532 337.112 957.745 337.368C957.959 337.603 958.385 337.773 959.025 337.88L959.985 338.04V339H951.985ZM976.242 339.32C975.282 339.32 974.525 339.171 973.97 338.872C973.437 338.552 973.053 338.157 972.818 337.688C972.605 337.197 972.498 336.707 972.498 336.216C972.498 335.491 972.754 334.765 973.266 334.04C973.799 333.293 974.663 332.547 975.858 331.8C977.074 331.053 978.706 330.317 980.754 329.592L981.554 329.304L981.65 326.136C981.671 325.347 981.426 324.696 980.914 324.184C980.402 323.651 979.687 323.384 978.77 323.384C978.045 323.384 977.405 323.629 976.85 324.12C976.295 324.611 975.901 325.379 975.666 326.424C975.623 326.637 975.399 326.84 974.994 327.032C974.61 327.203 974.098 327.288 973.458 327.288C973.095 327.288 972.818 327.245 972.626 327.16C972.434 327.075 972.381 326.883 972.466 326.584C972.807 325.752 973.373 324.995 974.162 324.312C974.951 323.629 975.847 323.085 976.85 322.68C977.853 322.253 978.845 322.04 979.826 322.04C981.213 322.04 982.343 322.371 983.218 323.032C984.114 323.693 984.541 324.621 984.498 325.816L984.178 335.576C984.157 336.408 984.359 336.941 984.786 337.176C985.234 337.411 986.077 337.571 987.314 337.656V338.392L986.194 338.68C985.511 338.893 984.967 339.032 984.562 339.096C984.178 339.181 983.879 339.224 983.666 339.224C983.09 339.224 982.653 339.096 982.354 338.84C982.077 338.584 981.874 338.285 981.746 337.944C981.639 337.603 981.565 337.325 981.522 337.112H981.266C980.349 338.008 979.485 338.605 978.674 338.904C977.885 339.181 977.074 339.32 976.242 339.32ZM978.066 337.208C978.834 337.208 979.463 337.091 979.954 336.856C980.466 336.6 980.925 336.333 981.33 336.056L981.522 330.392L981.266 330.488C979.73 331.064 978.557 331.629 977.746 332.184C976.935 332.739 976.381 333.272 976.082 333.784C975.805 334.296 975.666 334.765 975.666 335.192C975.666 336.536 976.466 337.208 978.066 337.208ZM994.416 339.32C993.093 339.32 992.037 338.979 991.248 338.296C990.458 337.613 990.064 336.504 990.064 334.968V324.28H988.048V323.32C989.712 322.403 991.034 321.187 992.016 319.672H992.976V322.296V323.224V334.104C992.976 334.936 993.114 335.565 993.392 335.992C993.669 336.419 994.042 336.707 994.512 336.856C995.002 336.984 995.525 337.048 996.08 337.048C996.805 337.048 997.434 336.941 997.968 336.728C998.501 336.515 999.002 336.269 999.472 335.992L1000.05 336.664C999.386 337.347 998.586 337.965 997.648 338.52C996.709 339.053 995.632 339.32 994.416 339.32ZM991.568 324.28V322.36H999.664V322.84L998.832 324.28H991.568ZM1000.55 339V338.04L1001.51 337.88C1002.15 337.773 1002.57 337.603 1002.79 337.368C1003 337.112 1003.11 336.653 1003.11 335.992V326.456C1003.11 325.773 1002.96 325.293 1002.66 325.016C1002.36 324.717 1001.68 324.504 1000.61 324.376V323.576L1005.54 322.168H1005.99V335.992C1005.99 336.653 1006.09 337.112 1006.31 337.368C1006.52 337.603 1006.95 337.773 1007.59 337.88L1008.55 338.04V339H1000.55ZM1004.23 319.704C1003.69 319.704 1003.25 319.533 1002.88 319.192C1002.52 318.829 1002.34 318.371 1002.34 317.816C1002.34 317.261 1002.52 316.813 1002.88 316.472C1003.25 316.131 1003.69 315.96 1004.23 315.96C1004.74 315.96 1005.18 316.131 1005.54 316.472C1005.9 316.813 1006.08 317.261 1006.08 317.816C1006.08 318.371 1005.9 318.829 1005.54 319.192C1005.18 319.533 1004.74 319.704 1004.23 319.704ZM1018.82 339.32C1017.12 339.32 1015.61 338.957 1014.31 338.232C1013.01 337.507 1012 336.493 1011.27 335.192C1010.55 333.891 1010.18 332.387 1010.18 330.68C1010.18 329.059 1010.55 327.597 1011.27 326.296C1012 324.995 1013 323.96 1014.28 323.192C1015.58 322.424 1017.1 322.04 1018.82 322.04C1020.55 322.04 1022.07 322.403 1023.37 323.128C1024.67 323.853 1025.68 324.867 1026.41 326.168C1027.13 327.448 1027.5 328.941 1027.5 330.648C1027.5 332.269 1027.13 333.741 1026.41 335.064C1025.68 336.365 1024.67 337.4 1023.37 338.168C1022.09 338.936 1020.57 339.32 1018.82 339.32ZM1019.34 338.072C1020.79 338.072 1021.99 337.528 1022.95 336.44C1023.91 335.352 1024.39 333.709 1024.39 331.512C1024.39 330.061 1024.16 328.717 1023.69 327.48C1023.24 326.221 1022.57 325.208 1021.67 324.44C1020.78 323.672 1019.67 323.288 1018.34 323.288C1016.89 323.288 1015.69 323.832 1014.73 324.92C1013.77 326.008 1013.29 327.661 1013.29 329.88C1013.29 331.309 1013.51 332.653 1013.96 333.912C1014.43 335.149 1015.11 336.152 1016.01 336.92C1016.9 337.688 1018.01 338.072 1019.34 338.072ZM1029.36 339V338.04L1030.32 337.88C1030.96 337.773 1031.39 337.603 1031.6 337.368C1031.81 337.112 1031.92 336.653 1031.92 335.992V326.456C1031.92 325.773 1031.77 325.293 1031.47 325.016C1031.17 324.717 1030.49 324.504 1029.42 324.376V323.576L1034.26 322.168H1034.7V324.504H1034.9C1035.92 323.608 1036.87 322.979 1037.74 322.616C1038.62 322.232 1039.64 322.04 1040.82 322.04C1042.33 322.04 1043.51 322.424 1044.37 323.192C1045.24 323.939 1045.68 325.005 1045.68 326.392V335.992C1045.68 336.653 1045.79 337.112 1046 337.368C1046.21 337.603 1046.64 337.773 1047.28 337.88L1048.24 338.04V339H1040.24V338.04L1041.2 337.88C1041.84 337.773 1042.27 337.603 1042.48 337.368C1042.69 337.112 1042.8 336.653 1042.8 335.992V327.352C1042.8 326.563 1042.66 325.923 1042.38 325.432C1042.11 324.941 1041.69 324.579 1041.14 324.344C1040.6 324.088 1039.91 323.96 1039.06 323.96C1038.22 323.96 1037.48 324.109 1036.82 324.408C1036.15 324.685 1035.48 325.133 1034.8 325.752V335.992C1034.8 336.653 1034.91 337.112 1035.12 337.368C1035.33 337.603 1035.76 337.773 1036.4 337.88L1037.36 338.04V339H1029.36ZM1053.62 339.32C1052.66 339.32 1051.9 339.171 1051.35 338.872C1050.81 338.552 1050.43 338.157 1050.19 337.688C1049.98 337.197 1049.87 336.707 1049.87 336.216C1049.87 335.491 1050.13 334.765 1050.64 334.04C1051.17 333.293 1052.04 332.547 1053.23 331.8C1054.45 331.053 1056.08 330.317 1058.13 329.592L1058.93 329.304L1059.03 326.136C1059.05 325.347 1058.8 324.696 1058.29 324.184C1057.78 323.651 1057.06 323.384 1056.15 323.384C1055.42 323.384 1054.78 323.629 1054.23 324.12C1053.67 324.611 1053.28 325.379 1053.04 326.424C1053 326.637 1052.77 326.84 1052.37 327.032C1051.99 327.203 1051.47 327.288 1050.83 327.288C1050.47 327.288 1050.19 327.245 1050 327.16C1049.81 327.075 1049.76 326.883 1049.84 326.584C1050.18 325.752 1050.75 324.995 1051.54 324.312C1052.33 323.629 1053.22 323.085 1054.23 322.68C1055.23 322.253 1056.22 322.04 1057.2 322.04C1058.59 322.04 1059.72 322.371 1060.59 323.032C1061.49 323.693 1061.92 324.621 1061.87 325.816L1061.55 335.576C1061.53 336.408 1061.73 336.941 1062.16 337.176C1062.61 337.411 1063.45 337.571 1064.69 337.656V338.392L1063.57 338.68C1062.89 338.893 1062.34 339.032 1061.94 339.096C1061.55 339.181 1061.25 339.224 1061.04 339.224C1060.47 339.224 1060.03 339.096 1059.73 338.84C1059.45 338.584 1059.25 338.285 1059.12 337.944C1059.01 337.603 1058.94 337.325 1058.9 337.112H1058.64C1057.72 338.008 1056.86 338.605 1056.05 338.904C1055.26 339.181 1054.45 339.32 1053.62 339.32ZM1055.44 337.208C1056.21 337.208 1056.84 337.091 1057.33 336.856C1057.84 336.6 1058.3 336.333 1058.71 336.056L1058.9 330.392L1058.64 330.488C1057.11 331.064 1055.93 331.629 1055.12 332.184C1054.31 332.739 1053.76 333.272 1053.46 333.784C1053.18 334.296 1053.04 334.765 1053.04 335.192C1053.04 336.536 1053.84 337.208 1055.44 337.208ZM1065.17 339V338.04L1066.13 337.88C1066.77 337.773 1067.19 337.603 1067.41 337.368C1067.62 337.112 1067.73 336.653 1067.73 335.992V317.688C1067.73 317.005 1067.58 316.525 1067.28 316.248C1066.98 315.949 1066.3 315.736 1065.23 315.608V314.808L1070.16 313.4H1070.61V335.992C1070.61 336.653 1070.71 337.112 1070.93 337.368C1071.14 337.603 1071.57 337.773 1072.21 337.88L1073.17 338.04V339H1065.17ZM1089.81 339.32C1088.25 339.32 1086.86 338.957 1085.65 338.232C1084.45 337.485 1083.51 336.483 1082.83 335.224C1082.15 333.944 1081.81 332.504 1081.81 330.904C1081.81 329.197 1082.18 327.683 1082.93 326.36C1083.7 325.016 1084.74 323.96 1086.06 323.192C1087.39 322.424 1088.88 322.04 1090.54 322.04C1091.65 322.04 1092.61 322.189 1093.42 322.488C1094.26 322.787 1094.9 323.149 1095.34 323.576C1095.81 324.003 1096.05 324.408 1096.05 324.792C1096.05 325.133 1095.88 325.421 1095.54 325.656C1095.19 325.869 1094.82 325.997 1094.42 326.04C1094.01 326.083 1093.7 326.019 1093.49 325.848L1091.44 324.024C1091.16 323.768 1090.89 323.597 1090.61 323.512C1090.33 323.405 1089.98 323.352 1089.55 323.352C1088.57 323.352 1087.72 323.64 1086.99 324.216C1086.27 324.792 1085.7 325.571 1085.3 326.552C1084.91 327.512 1084.72 328.589 1084.72 329.784C1084.72 331.192 1084.99 332.44 1085.52 333.528C1086.07 334.616 1086.83 335.48 1087.79 336.12C1088.77 336.739 1089.88 337.048 1091.12 337.048C1091.87 337.048 1092.6 336.92 1093.33 336.664C1094.05 336.408 1094.81 335.981 1095.6 335.384L1096.24 335.992C1095.24 337.165 1094.21 338.019 1093.17 338.552C1092.12 339.064 1091 339.32 1089.81 339.32ZM1097.42 339V338.04L1098.38 337.88C1099.02 337.773 1099.44 337.603 1099.66 337.368C1099.87 337.112 1099.98 336.653 1099.98 335.992V317.688C1099.98 317.005 1099.83 316.525 1099.53 316.248C1099.23 315.949 1098.55 315.736 1097.48 315.608V314.808L1102.41 313.4H1102.86V335.992C1102.86 336.653 1102.96 337.112 1103.18 337.368C1103.39 337.603 1103.82 337.773 1104.46 337.88L1105.42 338.04V339H1097.42ZM1110.87 339.32C1109.91 339.32 1109.15 339.171 1108.6 338.872C1108.06 338.552 1107.68 338.157 1107.44 337.688C1107.23 337.197 1107.12 336.707 1107.12 336.216C1107.12 335.491 1107.38 334.765 1107.89 334.04C1108.42 333.293 1109.29 332.547 1110.48 331.8C1111.7 331.053 1113.33 330.317 1115.38 329.592L1116.18 329.304L1116.28 326.136C1116.3 325.347 1116.05 324.696 1115.54 324.184C1115.03 323.651 1114.31 323.384 1113.4 323.384C1112.67 323.384 1112.03 323.629 1111.48 324.12C1110.92 324.611 1110.53 325.379 1110.29 326.424C1110.25 326.637 1110.02 326.84 1109.62 327.032C1109.24 327.203 1108.72 327.288 1108.08 327.288C1107.72 327.288 1107.44 327.245 1107.25 327.16C1107.06 327.075 1107.01 326.883 1107.09 326.584C1107.43 325.752 1108 324.995 1108.79 324.312C1109.58 323.629 1110.47 323.085 1111.48 322.68C1112.48 322.253 1113.47 322.04 1114.45 322.04C1115.84 322.04 1116.97 322.371 1117.84 323.032C1118.74 323.693 1119.17 324.621 1119.12 325.816L1118.8 335.576C1118.78 336.408 1118.98 336.941 1119.41 337.176C1119.86 337.411 1120.7 337.571 1121.94 337.656V338.392L1120.82 338.68C1120.14 338.893 1119.59 339.032 1119.19 339.096C1118.8 339.181 1118.5 339.224 1118.29 339.224C1117.72 339.224 1117.28 339.096 1116.98 338.84C1116.7 338.584 1116.5 338.285 1116.37 337.944C1116.26 337.603 1116.19 337.325 1116.15 337.112H1115.89C1114.97 338.008 1114.11 338.605 1113.3 338.904C1112.51 339.181 1111.7 339.32 1110.87 339.32ZM1112.69 337.208C1113.46 337.208 1114.09 337.091 1114.58 336.856C1115.09 336.6 1115.55 336.333 1115.96 336.056L1116.15 330.392L1115.89 330.488C1114.36 331.064 1113.18 331.629 1112.37 332.184C1111.56 332.739 1111.01 333.272 1110.71 333.784C1110.43 334.296 1110.29 334.765 1110.29 335.192C1110.29 336.536 1111.09 337.208 1112.69 337.208ZM1122.67 339V338.04L1123.63 337.88C1124.27 337.773 1124.7 337.603 1124.91 337.368C1125.13 337.112 1125.23 336.653 1125.23 335.992V326.456C1125.23 325.773 1125.08 325.293 1124.78 325.016C1124.49 324.717 1123.8 324.504 1122.74 324.376V323.576L1127.66 322.168H1128.11V335.992C1128.11 336.653 1128.22 337.112 1128.43 337.368C1128.65 337.603 1129.07 337.773 1129.71 337.88L1130.67 338.04V339H1122.67ZM1126.35 319.704C1125.82 319.704 1125.37 319.533 1125.01 319.192C1124.65 318.829 1124.46 318.371 1124.46 317.816C1124.46 317.261 1124.65 316.813 1125.01 316.472C1125.37 316.131 1125.82 315.96 1126.35 315.96C1126.86 315.96 1127.3 316.131 1127.66 316.472C1128.03 316.813 1128.21 317.261 1128.21 317.816C1128.21 318.371 1128.03 318.829 1127.66 319.192C1127.3 319.533 1126.86 319.704 1126.35 319.704ZM1131.86 339V338.04L1132.82 337.88C1133.46 337.773 1133.89 337.603 1134.1 337.368C1134.31 337.112 1134.42 336.653 1134.42 335.992V326.456C1134.42 325.773 1134.27 325.293 1133.97 325.016C1133.67 324.717 1132.99 324.504 1131.92 324.376V323.576L1136.76 322.168H1137.2V324.504H1137.4C1138.42 323.608 1139.36 322.979 1140.21 322.616C1141.07 322.232 1141.98 322.04 1142.96 322.04C1143.9 322.04 1144.73 322.232 1145.46 322.616C1146.21 322.979 1146.72 323.64 1147 324.6H1147.16C1148.27 323.661 1149.25 323 1150.1 322.616C1150.97 322.232 1151.9 322.04 1152.88 322.04C1153.67 322.04 1154.39 322.168 1155.03 322.424C1155.67 322.659 1156.18 323.064 1156.56 323.64C1156.95 324.195 1157.14 324.973 1157.14 325.976V335.992C1157.14 336.653 1157.25 337.112 1157.46 337.368C1157.67 337.603 1158.1 337.773 1158.74 337.88L1159.7 338.04V339H1151.7V338.04L1152.66 337.88C1153.3 337.773 1153.73 337.603 1153.94 337.368C1154.15 337.112 1154.26 336.653 1154.26 335.992V326.936C1154.26 326.083 1154.13 325.443 1153.88 325.016C1153.64 324.589 1153.31 324.312 1152.88 324.184C1152.46 324.035 1151.97 323.96 1151.41 323.96C1150.62 323.96 1149.91 324.109 1149.27 324.408C1148.63 324.685 1147.95 325.133 1147.22 325.752V335.992C1147.22 336.653 1147.33 337.112 1147.54 337.368C1147.75 337.603 1148.18 337.773 1148.82 337.88L1149.78 338.04V339H1141.78V338.04L1142.74 337.88C1143.38 337.773 1143.81 337.603 1144.02 337.368C1144.23 337.112 1144.34 336.653 1144.34 335.992V326.936C1144.34 326.083 1144.21 325.443 1143.96 325.016C1143.72 324.589 1143.39 324.312 1142.96 324.184C1142.54 324.035 1142.05 323.96 1141.49 323.96C1140.7 323.96 1139.98 324.109 1139.32 324.408C1138.65 324.685 1137.98 325.133 1137.3 325.752V335.992C1137.3 336.653 1137.41 337.112 1137.62 337.368C1137.83 337.603 1138.26 337.773 1138.9 337.88L1139.86 338.04V339H1131.86ZM1166.49 339.32C1165.68 339.32 1164.82 339.224 1163.9 339.032C1163.01 338.84 1162.27 338.584 1161.69 338.264V333.944H1162.62C1162.86 335.437 1163.37 336.515 1164.16 337.176C1164.97 337.816 1165.89 338.136 1166.91 338.136C1167.89 338.136 1168.66 337.88 1169.21 337.368C1169.77 336.856 1170.05 336.184 1170.05 335.352C1170.05 334.605 1169.82 334.029 1169.37 333.624C1168.95 333.197 1168.36 332.792 1167.61 332.408L1165.31 331.192C1163.94 330.467 1163.04 329.741 1162.59 329.016C1162.14 328.291 1161.92 327.565 1161.92 326.84C1161.92 325.88 1162.17 325.048 1162.69 324.344C1163.22 323.619 1163.94 323.053 1164.86 322.648C1165.78 322.243 1166.82 322.04 1168 322.04C1168.79 322.04 1169.52 322.125 1170.21 322.296C1170.91 322.467 1171.54 322.68 1172.09 322.936V326.648H1171.17C1171.04 326.029 1170.82 325.464 1170.53 324.952C1170.23 324.44 1169.82 324.024 1169.31 323.704C1168.82 323.384 1168.19 323.224 1167.42 323.224C1166.46 323.224 1165.73 323.469 1165.21 323.96C1164.7 324.451 1164.45 325.059 1164.45 325.784C1164.45 326.381 1164.63 326.904 1164.99 327.352C1165.37 327.8 1165.99 328.248 1166.85 328.696L1168.96 329.784C1170.15 330.381 1171.05 331 1171.65 331.64C1172.26 332.28 1172.57 333.133 1172.57 334.2C1172.57 335.309 1172.29 336.248 1171.71 337.016C1171.13 337.763 1170.38 338.339 1169.44 338.744C1168.52 339.128 1167.54 339.32 1166.49 339.32ZM1177.33 339.32C1176.8 339.32 1176.33 339.139 1175.92 338.776C1175.54 338.413 1175.35 337.933 1175.35 337.336C1175.35 336.781 1175.54 336.323 1175.92 335.96C1176.33 335.597 1176.8 335.416 1177.33 335.416C1177.86 335.416 1178.32 335.597 1178.71 335.96C1179.09 336.323 1179.28 336.781 1179.28 337.336C1179.28 337.933 1179.09 338.413 1178.71 338.776C1178.32 339.139 1177.86 339.32 1177.33 339.32Z" fill="#686868"/>
<ellipse cx="356.111" cy="350.462" rx="81.8154" ry="84.1664" stroke="#C49A4A" stroke-width="16"/>
<path d="M454.225 460.355C458.288 464.097 464.614 463.837 468.356 459.775C472.097 455.712 471.837 449.386 467.775 445.645L461 453L454.225 460.355ZM417.818 413.227L411.043 420.583L454.225 460.355L461 453L467.775 445.645L424.593 405.872L417.818 413.227Z" fill="#C49A4A"/>
</svg>
