<svg width="1800" height="500" viewBox="0 0 1800 500" fill="none" xmlns="http://www.w3.org/2000/svg">
<path d="M121.5 398.5C121.5 398.5 140.5 373 144.5 361C146.722 354.334 164.065 353.531 180.5 350.792C193.651 348.6 206.222 345.168 210 336.5C213.373 328.762 214.5 292 195.021 284C175.542 276 174 253.5 182.5 239.5C191 225.5 217.5 229 225.5 229M225.5 229C232.929 200.418 202.039 179.833 178.5 162C162.645 149.989 143.681 163.421 129 150C115.538 137.694 112 106.5 112 106.5M225.5 229C225.5 229 262.372 233.406 280 218.5C296.509 204.54 280.756 186.591 301 179C321 171.5 325 175 337 179C344.278 181.426 355.74 191.479 372.5 188C399 182.5 412.603 170.301 415 147.5" stroke="white" stroke-width="10"/>
<path d="M151 96C139.887 100.193 129.5 104.5 122.5 111.5C120.291 113.709 122.5 119 123.5 122C125.324 127.47 125.992 131.081 129 136C131.713 140.436 133.982 143.427 138.5 146C143.59 148.899 147.642 148.5 153.5 148.5C158.967 148.5 161.121 148.022 166.5 149C170.753 149.773 172.536 149.778 176.5 151.5C182.121 153.942 184.882 156.629 190 160C195.251 163.459 198.321 164.8 203 169C208.249 173.712 216 181 216 181C216 181 221.787 187.093 225.66 192.332C226.23 193.103 226.714 193.926 227.139 194.785C228.457 197.451 231.516 203.731 233.5 208.5C235.54 213.404 232 222 238.5 222C245 222 244.776 221.228 247.5 221C254.639 220.401 258.954 220.41 265.5 217.5L265.51 217.495C270.006 215.498 273.744 213.836 276.5 210C279.06 206.436 279.233 204.82 280 200.5C280.717 196.463 280.739 193.029 281.5 189C282.409 184.188 283.002 182.872 286 179C289.879 173.99 292.055 173.691 298 171.5L298.201 171.426C307.557 167.979 311.571 166.5 321.5 166.5C327.515 166.5 331.5 168 335 169.5C338.5 171 343.444 172.862 348.5 175.5C355.767 179.292 360.809 180.292 369 180C376.052 179.749 380.117 178.509 386.5 175.5C392.085 172.867 395.652 171.329 399.5 166.5C402.713 162.468 405.084 159.654 405 154.5C404.919 149.522 401.915 147.595 400 143C397.5 137 395.115 132.581 391 127C386.564 120.982 384.448 118.12 379 113C372.169 106.58 366.568 103.304 358 99.5C348.199 95.1482 342.705 93.6391 332 93C298.5 91 278.671 92.5 244.5 92.5C215.016 92.5 197.398 90.2387 168 92.5C161.5 93 157.3 93.6233 151 96Z" fill="white" stroke="white"/>
<path d="M101.633 136.687L108 126.5C108.185 126.131 108.723 126.169 108.854 126.561L110 130L111.5 135L113 139.5L116 147L118.158 150.956C118.718 151.983 119.368 152.959 120.098 153.873L121.826 156.032C122.607 157.009 123.478 157.91 124.427 158.723L124.631 158.898C125.872 159.962 127.24 160.87 128.702 161.601L130.02 162.26C131.005 162.752 132.029 163.163 133.082 163.487L136.5 164.539C137.499 164.846 138.519 165.074 139.553 165.222L143.593 165.799C144.53 165.933 145.475 166 146.421 166H160.5H161.528C164.469 166 167.369 166.685 170 168L173.23 169.468C174.737 170.153 176.154 171.023 177.447 172.058L185.5 178.5L193.103 183.702C194.364 184.565 195.521 185.568 196.553 186.694L200.5 191L206.332 195.999C207.109 196.665 207.835 197.391 208.501 198.168L211.898 202.131C212.962 203.372 213.87 204.74 214.601 206.202L216 209L218.194 214.264C218.396 214.75 218.5 215.271 218.5 215.797V217.723C218.5 219.177 217.195 220.282 215.761 220.043C215.588 220.015 215.411 220.005 215.236 220.016L207 220.5L200.834 220.863C199.283 220.954 197.749 221.225 196.261 221.672L191.074 223.228C189.366 223.74 187.734 224.479 186.221 225.424L182.885 227.51C181.303 228.498 179.867 229.704 178.619 231.09L177.812 231.987C176.609 233.323 175.593 234.815 174.789 236.422L172.636 240.729C172.212 241.575 171.85 242.451 171.551 243.348L170.847 245.459C170.285 247.146 169.95 248.899 169.851 250.674L169.5 257L169.879 261.932C169.96 262.976 170.122 264.012 170.364 265.03L171.85 271.272C172.281 273.082 172.963 274.823 173.875 276.444L176.17 280.525C176.722 281.506 177.359 282.438 178.072 283.31C180.315 286.051 183.263 288.129 186.598 289.321L186.752 289.376C187.915 289.791 189.037 290.313 190.103 290.935L191.928 292C193.631 292.993 195.162 294.257 196.461 295.741C197.483 296.909 198.351 298.203 199.046 299.591L199.279 300.059C199.759 301.018 200.161 302.014 200.481 303.038L202.5 309.5L203.612 315.058C203.87 316.35 204 317.663 204 318.98V323.5L203.202 330.681C203.069 331.876 202.652 333.022 201.985 334.023C201.337 334.994 200.472 335.802 199.458 336.381L196.286 338.194C194.769 339.061 193.144 339.725 191.453 340.17L184.5 342L170.5 344.5L162 345.5L151.289 347.214C150.099 347.404 148.928 347.702 147.792 348.103L144.639 349.216C142.251 350.058 140.112 351.486 138.418 353.368C137.151 354.777 136.158 356.411 135.493 358.185L133.5 363.5L130.878 369.867C130.295 371.284 129.55 372.63 128.659 373.877L125 379L122.25 382.25L121.043 383.677C120.202 384.67 118.703 384.76 117.75 383.875L116 382.25L114.12 380.504C113.043 379.504 112.08 378.389 111.248 377.179L107 371L101.5 360.5L97.0475 348.478C96.6831 347.494 96.3966 346.483 96.1909 345.454L94 334.5L93 324.5V307V262.5V227V200V168.418C93 167.142 93.122 165.87 93.3644 164.617L95.7061 152.519C95.9017 151.508 96.1752 150.513 96.5239 149.545L99.7756 140.512C100.257 139.175 100.88 137.892 101.633 136.687Z" fill="white" stroke="white"/>
<path d="M407.146 179.647C407.83 178.963 409 179.447 409 180.414V188.525L408.997 188.55L408.5 193.517L408 208.517V232.995L408.358 266.718C393.43 257.493 375.837 252.167 357 252.167C302.968 252.167 259.167 295.968 259.167 350C259.167 371.935 266.386 392.183 278.577 408.5H172.418C171.11 408.5 169.806 408.375 168.522 408.127L156.809 405.859C155.511 405.608 154.239 405.232 153.013 404.735L144.312 401.214L136.437 398.026C134.771 397.352 134.092 395.354 135.001 393.804L135.693 392.622L142.068 381.747L148.556 370.268C150.807 365.154 155.544 361.569 161.078 360.794L177.415 358.507L192.237 355.966C193.97 355.669 195.655 355.139 197.246 354.391L207.908 349.373C210.401 348.2 212.617 346.512 214.41 344.42L214.47 344.35C216.489 341.995 217.916 339.193 218.634 336.176L219.469 332.669C219.822 331.189 220 329.673 220 328.152V319.474C220 318.517 219.929 317.562 219.789 316.616L218.261 306.306C218.095 305.182 217.831 304.075 217.471 302.997L215.152 296.037C214.746 294.819 214.22 293.643 213.583 292.528L210.98 287.973C209.433 285.266 207.26 282.97 204.642 281.276L200.248 278.432L195.774 275.972C192.103 273.952 189.211 270.763 187.56 266.911C187.204 266.081 186.909 265.225 186.676 264.352L185.984 261.758C185.329 259.3 185.137 256.741 185.418 254.212L185.575 252.8C185.865 250.188 186.725 247.672 188.095 245.43C190.399 241.661 194.013 238.874 198.244 237.605L199.509 237.226C201.107 236.746 202.758 236.463 204.425 236.384L212.476 236.001L212.499 235.999L212.522 236.001L223.522 236.501H223.53L240.003 237.499L253.053 237.079C254.627 237.028 256.189 236.787 257.705 236.36L269.535 233.033C270.721 232.7 271.874 232.254 272.976 231.703L279.04 228.671C280.487 227.947 281.84 227.045 283.065 225.987L287.924 221.792C290.633 219.452 292.646 216.41 293.742 213.001L296.516 204.37L297.508 200.406L298.004 196.438L298.005 196.428L298.007 196.418L298.436 193.841C298.824 191.514 300.007 189.392 301.782 187.839C302.747 186.995 303.862 186.339 305.069 185.908L308.431 184.708C309.726 184.246 311.065 183.914 312.426 183.72L314.365 183.442C316.446 183.145 318.561 183.17 320.634 183.516L323.582 184.007L323.595 184.009L323.608 184.012L328.108 185.012L328.132 185.018L331.245 185.866C332.869 186.309 334.433 186.952 335.901 187.777L339.509 189.807C340.956 190.621 342.502 191.246 344.107 191.669L357.302 195.142C359.448 195.706 361.674 195.9 363.884 195.716L376.229 194.688C377.673 194.567 379.1 194.286 380.482 193.85L387.83 191.529L394.482 188.942C395.995 188.354 397.428 187.579 398.749 186.636L402.362 184.056C403.236 183.431 404.058 182.735 404.817 181.976L407.146 179.647Z" fill="white"/>
<path d="M325 75C380.228 75 425 119.772 425 175V279.665C420.695 275.502 416.01 271.73 411 268.408V175C411 127.504 372.496 89 325 89H175C127.504 89 89 127.504 89 175V325C89 372.496 127.504 411 175 411H280.51C284.59 416.109 289.171 420.801 294.179 425H175L173.707 424.992C119.505 424.305 75.6946 380.495 75.0078 326.293L75 325V175C75 119.772 119.772 75 175 75H325Z" fill="white"/>
<path d="M498 361V353.5L503.25 353C507.75 352.5 511.25 351.583 513.75 350.25C516.25 348.917 518.083 346.75 519.25 343.75C520.583 340.75 521.417 336.667 521.75 331.5L531.25 215.5C531.917 207.833 530.917 202.583 528.25 199.75C525.75 196.75 520.333 194.833 512 194L506.75 193.5V186H555.75L612.25 335H605.5L658.75 186H706.25V193.5L701 194C695.833 194.5 691.917 195.417 689.25 196.75C686.75 198.083 685.167 200.25 684.5 203.25C683.833 206.083 683.75 210.167 684.25 215.5L694.5 328.25C695 334.083 695.917 338.75 697.25 342.25C698.75 345.583 700.917 348.083 703.75 349.75C706.583 351.25 710.417 352.333 715.25 353L721 353.5V361H649.25V353.5L657.5 352.75C664 352.083 668.167 350.167 670 347C671.833 343.667 672.333 337.417 671.5 328.25L660.25 201L663.75 201.75L606.75 361H598.5L541.5 212.25L533.75 331.5C533.417 336.833 533.75 341.083 534.75 344.25C535.917 347.25 538 349.417 541 350.75C544.167 352.083 548.583 352.917 554.25 353.25L559.5 353.5V361H498ZM728.969 361V353.5L736.469 352.25C741.469 351.417 744.802 350.083 746.469 348.25C748.135 346.25 748.969 342.667 748.969 337.5V263C748.969 257.667 747.802 253.917 745.469 251.75C743.135 249.417 737.802 247.75 729.469 246.75V240.5L767.969 229.5H771.469V337.5C771.469 342.667 772.302 346.25 773.969 348.25C775.635 350.083 778.969 351.417 783.969 352.25L791.469 353.5V361H728.969ZM757.719 210.25C753.552 210.25 750.052 208.917 747.219 206.25C744.385 203.417 742.969 199.833 742.969 195.5C742.969 191.167 744.385 187.667 747.219 185C750.052 182.333 753.552 181 757.719 181C761.719 181 765.135 182.333 767.969 185C770.802 187.667 772.219 191.167 772.219 195.5C772.219 199.833 770.802 203.417 767.969 206.25C765.135 208.917 761.719 210.25 757.719 210.25ZM866.746 363.5C854.579 363.5 843.746 360.667 834.246 355C824.913 349.167 817.579 341.333 812.246 331.5C806.913 321.5 804.246 310.25 804.246 297.75C804.246 284.417 807.163 272.583 812.996 262.25C818.996 251.75 827.163 243.5 837.496 237.5C847.829 231.5 859.496 228.5 872.496 228.5C881.163 228.5 888.663 229.667 894.996 232C901.496 234.333 906.496 237.167 909.996 240.5C913.663 243.833 915.496 247 915.496 250C915.496 252.667 914.163 254.917 911.496 256.75C908.829 258.417 905.913 259.417 902.746 259.75C899.579 260.083 897.163 259.583 895.496 258.25L879.496 244C877.329 242 875.163 240.667 872.996 240C870.829 239.167 868.079 238.75 864.746 238.75C857.079 238.75 850.413 241 844.746 245.5C839.079 250 834.663 256.083 831.496 263.75C828.496 271.25 826.996 279.667 826.996 289C826.996 300 829.079 309.75 833.246 318.25C837.579 326.75 843.496 333.5 850.996 338.5C858.663 343.333 867.329 345.75 876.996 345.75C882.829 345.75 888.579 344.75 894.246 342.75C899.913 340.75 905.829 337.417 911.996 332.75L916.996 337.5C909.163 346.667 901.163 353.333 892.996 357.5C884.829 361.5 876.079 363.5 866.746 363.5ZM928.188 361V353.5L935.688 352.25C940.854 351.417 944.188 350.083 945.688 348.25C947.354 346.25 948.188 342.667 948.188 337.5V263C948.188 257.333 946.854 253.5 944.188 251.5C941.688 249.333 936.521 247.75 928.688 246.75V240.5L966.438 229.5H969.938V249.5H972.188C976.354 243.5 981.438 238.583 987.438 234.75C993.604 230.917 1000.6 229 1008.44 229C1014.44 229 1018.94 230.25 1021.94 232.75C1025.1 235.25 1026.69 238.5 1026.69 242.5C1026.69 245.167 1025.6 247.583 1023.44 249.75C1021.44 251.917 1019.02 253.417 1016.19 254.25C1013.35 254.917 1010.6 254.5 1007.94 253L995.938 246C993.938 244.833 991.521 245 988.687 246.5C985.854 248 983.021 250 980.188 252.5C977.521 254.833 975.271 257.167 973.438 259.5C971.604 261.667 970.688 262.917 970.688 263.25V337.5C970.688 342.667 971.521 346.25 973.188 348.25C974.854 350.083 978.188 351.333 983.188 352L995.688 353.5V361H928.188ZM1094.89 363.5C1081.56 363.5 1069.81 360.667 1059.64 355C1049.47 349.333 1041.56 341.417 1035.89 331.25C1030.22 321.083 1027.39 309.333 1027.39 296C1027.39 283.333 1030.22 271.917 1035.89 261.75C1041.56 251.583 1049.39 243.5 1059.39 237.5C1069.56 231.5 1081.39 228.5 1094.89 228.5C1108.39 228.5 1120.22 231.333 1130.39 237C1140.56 242.667 1148.47 250.583 1154.14 260.75C1159.81 270.75 1162.64 282.417 1162.64 295.75C1162.64 308.417 1159.81 319.917 1154.14 330.25C1148.47 340.417 1140.56 348.5 1130.39 354.5C1120.39 360.5 1108.56 363.5 1094.89 363.5ZM1098.89 353.75C1110.22 353.75 1119.64 349.5 1127.14 341C1134.64 332.5 1138.39 319.667 1138.39 302.5C1138.39 291.167 1136.56 280.667 1132.89 271C1129.39 261.167 1124.14 253.25 1117.14 247.25C1110.14 241.25 1101.47 238.25 1091.14 238.25C1079.81 238.25 1070.39 242.5 1062.89 251C1055.39 259.5 1051.64 272.417 1051.64 289.75C1051.64 300.917 1053.39 311.417 1056.89 321.25C1060.56 330.917 1065.89 338.75 1072.89 344.75C1079.89 350.75 1088.56 353.75 1098.89 353.75ZM1160.9 361V353.5C1167.23 352.5 1172.07 351.333 1175.4 350C1178.9 348.667 1181.73 346.333 1183.9 343C1186.07 339.5 1188.57 334.25 1191.4 327.25L1249.65 184.75H1257.9L1316.4 330.75C1319.4 338.417 1322.82 343.917 1326.65 347.25C1330.48 350.583 1336.4 352.667 1344.4 353.5V361H1273.15V353.5L1283.4 352.25C1288.73 351.583 1292.07 349.667 1293.4 346.5C1294.9 343.167 1294.4 338.417 1291.9 332.25L1242.9 208.25H1250.65L1203.4 329.25C1200.23 337.25 1199.48 343 1201.15 346.5C1202.82 350 1206.82 352.083 1213.15 352.75L1220.4 353.5V361H1160.9ZM1213.65 293.25V283.25H1289.15V293.25H1213.65ZM1391.76 363.5C1381.42 363.5 1373.17 360.833 1367.01 355.5C1360.84 350.167 1357.76 341.5 1357.76 329.5V246H1342.01V238.5C1355.01 231.333 1365.34 221.833 1373.01 210H1380.51V230.5V237.75V322.75C1380.51 329.25 1381.59 334.167 1383.76 337.5C1385.92 340.833 1388.84 343.083 1392.51 344.25C1396.34 345.25 1400.42 345.75 1404.76 345.75C1410.42 345.75 1415.34 344.917 1419.51 343.25C1423.67 341.583 1427.59 339.667 1431.26 337.5L1435.76 342.75C1430.59 348.083 1424.34 352.917 1417.01 357.25C1409.67 361.417 1401.26 363.5 1391.76 363.5ZM1369.51 246V231H1432.76V234.75L1426.26 246H1369.51ZM1437.66 361V353.5L1445.16 352.25C1450.16 351.417 1453.5 350.083 1455.16 348.25C1456.83 346.25 1457.66 342.667 1457.66 337.5V194.5C1457.66 189.167 1456.5 185.417 1454.16 183.25C1451.83 180.917 1446.5 179.25 1438.16 178.25V172L1476.66 161H1480.16V337.5C1480.16 342.667 1481 346.25 1482.66 348.25C1484.33 350.083 1487.66 351.417 1492.66 352.25L1500.16 353.5V361H1437.66ZM1542.74 363.5C1535.24 363.5 1529.33 362.333 1524.99 360C1520.83 357.5 1517.83 354.417 1515.99 350.75C1514.33 346.917 1513.49 343.083 1513.49 339.25C1513.49 333.583 1515.49 327.917 1519.49 322.25C1523.66 316.417 1530.41 310.583 1539.74 304.75C1549.24 298.917 1561.99 293.167 1577.99 287.5L1584.24 285.25L1584.99 260.5C1585.16 254.333 1583.24 249.25 1579.24 245.25C1575.24 241.083 1569.66 239 1562.49 239C1556.83 239 1551.83 240.917 1547.49 244.75C1543.16 248.583 1540.08 254.583 1538.24 262.75C1537.91 264.417 1536.16 266 1532.99 267.5C1529.99 268.833 1525.99 269.5 1520.99 269.5C1518.16 269.5 1515.99 269.167 1514.49 268.5C1512.99 267.833 1512.58 266.333 1513.24 264C1515.91 257.5 1520.33 251.583 1526.49 246.25C1532.66 240.917 1539.66 236.667 1547.49 233.5C1555.33 230.167 1563.08 228.5 1570.74 228.5C1581.58 228.5 1590.41 231.083 1597.24 236.25C1604.24 241.417 1607.58 248.667 1607.24 258L1604.74 334.25C1604.58 340.75 1606.16 344.917 1609.49 346.75C1612.99 348.583 1619.58 349.833 1629.24 350.5V356.25L1620.49 358.5C1615.16 360.167 1610.91 361.25 1607.74 361.75C1604.74 362.417 1602.41 362.75 1600.74 362.75C1596.24 362.75 1592.83 361.75 1590.49 359.75C1588.33 357.75 1586.74 355.417 1585.74 352.75C1584.91 350.083 1584.33 347.917 1583.99 346.25H1581.99C1574.83 353.25 1568.08 357.917 1561.74 360.25C1555.58 362.417 1549.24 363.5 1542.74 363.5ZM1556.99 347C1562.99 347 1567.91 346.083 1571.74 344.25C1575.74 342.25 1579.33 340.167 1582.49 338L1583.99 293.75L1581.99 294.5C1569.99 299 1560.83 303.417 1554.49 307.75C1548.16 312.083 1543.83 316.25 1541.49 320.25C1539.33 324.25 1538.24 327.917 1538.24 331.25C1538.24 341.75 1544.49 347 1556.99 347ZM1679.22 363.5C1672.89 363.5 1666.14 362.75 1658.97 361.25C1651.97 359.75 1646.22 357.75 1641.72 355.25V321.5H1648.97C1650.81 333.167 1654.81 341.583 1660.97 346.75C1667.31 351.75 1674.47 354.25 1682.47 354.25C1690.14 354.25 1696.14 352.25 1700.47 348.25C1704.81 344.25 1706.97 339 1706.97 332.5C1706.97 326.667 1705.22 322.167 1701.72 319C1698.39 315.667 1693.81 312.5 1687.97 309.5L1669.97 300C1659.31 294.333 1652.22 288.667 1648.72 283C1645.22 277.333 1643.47 271.667 1643.47 266C1643.47 258.5 1645.47 252 1649.47 246.5C1653.64 240.833 1659.31 236.417 1666.47 233.25C1673.64 230.083 1681.81 228.5 1690.97 228.5C1697.14 228.5 1702.89 229.167 1708.22 230.5C1713.72 231.833 1718.64 233.5 1722.97 235.5V264.5H1715.72C1714.72 259.667 1713.06 255.25 1710.72 251.25C1708.39 247.25 1705.22 244 1701.22 241.5C1697.39 239 1692.47 237.75 1686.47 237.75C1678.97 237.75 1673.22 239.667 1669.22 243.5C1665.22 247.333 1663.22 252.083 1663.22 257.75C1663.22 262.417 1664.64 266.5 1667.47 270C1670.47 273.5 1675.31 277 1681.97 280.5L1698.47 289C1707.81 293.667 1714.81 298.5 1719.47 303.5C1724.31 308.5 1726.72 315.167 1726.72 323.5C1726.72 332.167 1724.47 339.5 1719.97 345.5C1715.47 351.333 1709.56 355.833 1702.22 359C1695.06 362 1687.39 363.5 1679.22 363.5Z" fill="white"/>
<ellipse cx="356.111" cy="350.462" rx="81.8154" ry="84.1664" stroke="white" stroke-width="16"/>
<path d="M454.225 460.355C458.288 464.097 464.614 463.837 468.356 459.775C472.097 455.712 471.837 449.386 467.775 445.645L461 453L454.225 460.355ZM417.818 413.227L411.044 420.583L454.225 460.355L461 453L467.775 445.645L424.593 405.872L417.818 413.227Z" fill="white"/>
</svg>
